<?xml version="1.0" encoding="UTF-8"?>
<svg id="Layer_1" xmlns="http://www.w3.org/2000/svg" version="1.1" viewBox="0 0 150 31.99">
  <!-- Generator: Adobe Illustrator 29.2.0, SVG Export Plug-In . SVG Version: 2.1.0 Build 108)  -->
  <defs>
    <style>
      .st0 {
        fill: #737373;
      }

      .st1 {
        fill: #f25022;
      }

      .st2 {
        fill: #ffb900;
      }

      .st3 {
        fill: #7fba00;
      }

      .st4 {
        fill: #00a4ef;
      }
    </style>
  </defs>
  <path class="st0" d="M62.38,6.4v19.19h-3.33v-15.06h-.04l-5.95,15.06h-2.22l-6.09-15.06h-.04v15.06h-3.07V6.4h4.8l5.51,14.22h.09l5.82-14.22s4.53,0,4.53,0ZM65.14,7.86c0-.53.18-.98.58-1.33.4-.36.84-.53,1.38-.53.58,0,1.07.18,1.42.53s.58.8.58,1.33-.18.98-.58,1.33c-.4.36-.84.53-1.42.53s-1.02-.18-1.38-.53c-.36-.4-.58-.84-.58-1.33ZM68.74,11.82v13.77h-3.24v-13.77s3.24,0,3.24,0ZM78.55,23.24c.49,0,1.02-.09,1.6-.36.58-.22,1.11-.53,1.6-.89v3.02c-.53.31-1.11.53-1.78.67s-1.38.22-2.18.22c-2.04,0-3.69-.62-4.93-1.91-1.29-1.29-1.91-2.93-1.91-4.89,0-2.22.67-4.04,1.95-5.47s3.11-2.13,5.51-2.13c.62,0,1.24.09,1.82.22.62.13,1.11.36,1.47.53v3.11c-.49-.36-1.02-.67-1.51-.84-.53-.18-1.07-.31-1.6-.31-1.29,0-2.31.4-3.11,1.24s-1.16,1.95-1.16,3.38.4,2.49,1.16,3.24c.76.76,1.78,1.16,3.07,1.16ZM90.95,11.6c.27,0,.49,0,.71.04s.4.09.53.13v3.29c-.18-.13-.4-.27-.76-.36s-.71-.18-1.2-.18c-.8,0-1.47.36-2,1.02s-.84,1.69-.84,3.11v6.93h-3.24v-13.77h3.24v2.18h.04c.31-.76.76-1.33,1.33-1.78.62-.4,1.33-.62,2.18-.62ZM92.37,18.93c0-2.27.67-4.09,1.91-5.42,1.29-1.33,3.07-2,5.33-2,2.13,0,3.82.62,5.02,1.91,1.2,1.29,1.82,3.02,1.82,5.2s-.67,4-1.91,5.33c-1.29,1.33-3.02,2-5.24,2s-3.82-.62-5.07-1.87c-1.24-1.29-1.87-3.02-1.87-5.15ZM95.75,18.79c0,1.42.31,2.53.98,3.29s1.6,1.16,2.8,1.16,2.09-.36,2.71-1.16c.62-.76.93-1.87.93-3.38s-.31-2.58-.93-3.38c-.62-.76-1.56-1.16-2.67-1.16-1.2,0-2.09.4-2.75,1.2-.76.84-1.07,1.95-1.07,3.42ZM111.3,15.46c0,.44.13.84.44,1.11s.93.58,1.95.98c1.29.53,2.22,1.11,2.71,1.73.53.67.8,1.42.8,2.35,0,1.29-.49,2.31-1.51,3.11-.98.8-2.35,1.16-4.04,1.16-.58,0-1.2-.09-1.91-.22s-1.29-.31-1.78-.53v-3.2c.58.4,1.24.76,1.91.98s1.29.36,1.87.36c.71,0,1.29-.09,1.6-.31.36-.22.53-.53.53-1.02,0-.44-.18-.8-.53-1.16-.36-.31-1.07-.67-2.04-1.07-1.2-.49-2.04-1.07-2.53-1.69s-.76-1.42-.76-2.4c0-1.24.49-2.27,1.47-3.07s2.27-1.2,3.82-1.2c.49,0,1.02.04,1.6.18s1.11.27,1.51.4v3.15c-.44-.27-.93-.53-1.51-.76s-1.16-.31-1.69-.31c-.62,0-1.11.13-1.42.36-.31.31-.49.62-.49,1.07ZM118.59,18.93c0-2.27.67-4.09,1.91-5.42,1.29-1.33,3.07-2,5.33-2,2.13,0,3.82.62,5.02,1.91,1.2,1.29,1.82,3.02,1.82,5.2s-.67,4-1.91,5.33c-1.29,1.33-3.02,2-5.24,2s-3.82-.62-5.07-1.87c-1.2-1.29-1.87-3.02-1.87-5.15ZM121.96,18.79c0,1.42.31,2.53.98,3.29s1.6,1.16,2.8,1.16,2.09-.36,2.71-1.16c.62-.76.93-1.87.93-3.38s-.31-2.58-.93-3.38c-.62-.76-1.56-1.16-2.67-1.16-1.2,0-2.09.4-2.75,1.2-.71.84-1.07,1.95-1.07,3.42ZM143.47,14.48h-4.84v11.11h-3.29v-11.11h-2.31v-2.67h2.31v-1.91c0-1.42.49-2.62,1.42-3.55s2.13-1.38,3.6-1.38c.4,0,.76.04,1.07.04s.58.09.8.18v2.8c-.09-.04-.31-.13-.58-.22-.27-.09-.58-.13-.93-.13-.67,0-1.2.22-1.56.62s-.53,1.07-.53,1.87v1.64h4.84v-3.11l3.24-.98v4.09h3.29v2.67h-3.29v6.44c0,.84.18,1.42.44,1.78.31.36.8.53,1.47.53.18,0,.4-.04.67-.13s.49-.18.67-.31v2.67c-.22.13-.53.22-1.02.31-.49.09-.93.13-1.42.13-1.38,0-2.4-.36-3.07-1.07-.67-.71-1.02-1.82-1.02-3.29l.04-7.02h0Z"/>
  <rect class="st1" width="15.2" height="15.2"/>
  <rect class="st3" x="16.8" width="15.2" height="15.2"/>
  <rect class="st4" y="16.8" width="15.2" height="15.2"/>
  <rect class="st2" x="16.8" y="16.8" width="15.2" height="15.2"/>
</svg>