<?xml version="1.0" encoding="UTF-8"?>
<svg id="Layer_1" xmlns="http://www.w3.org/2000/svg" version="1.1" viewBox="0 0 191 48">
  <!-- Generator: Adobe Illustrator 29.2.0, SVG Export Plug-In . SVG Version: 2.1.0 Build 108)  -->
  <defs>
    <style>
      .st0 {
        fill-rule: evenodd;
      }

      .st0, .st1 {
        fill: #cbd5e1;
      }
    </style>
  </defs>
  <path class="st1" d="M.8,48V0h48v48h-.4c-15.8,0-31.6,0-47.3,0,0,0-.2,0-.3,0h0ZM37.2,32.3c-5,5.5-13.3,5.1-18,.5-4.6-4.6-5-12-.7-16.8,2.5-2.9,5.7-4.4,9.6-4.3,3.8,0,7,1.6,9.5,4.5-3-5-9.4-8.4-16.4-6.8-6.5,1.6-11.2,7.3-11.5,13.9-.3,7.4,4.6,13.5,11.2,15.2,6.5,1.7,13-1.1,16.3-6.1h0ZM37.6,18.2c-3.4-3.4-8.5-3.4-11.8-.5-3.4,3.1-3.9,8-1,11.6,1.4,1.7,3.2,2.8,5.4,3,2.8.4,5.2-.5,7.3-2.5,0,.2,0,.4,0,.6,0,.4.2.7.5.8.2,0,.4.1.6.2.8,0,1.3-.4,1.3-1.2v-12.4c0-.4-.1-.7-.5-.8-.3-.1-.6-.2-.9-.2-.7,0-1,.4-1,1.1v.2h0ZM27.5,12.5c-3.4,0-8,2-10.2,6.7-2,4.5-1.1,9.8,2.7,13.3,1.2,1.1,2.6,1.9,4.2,2.5,1.6.5,4.3.8,4.8.5-6,0-11.1-4.6-11.6-10.7-.4-6,3.9-11.5,10.1-12.3Z"/>
  <path class="st0" d="M37.6,24v4.6c0,.2,0,.3-.2.4-.8.5-1.7,1.1-2.7,1.2-2.6.5-4.7-.2-6.4-2.2-1.1-1.3-1.5-2.9-1.3-4.6.3-2.9,2.5-4.9,5-5.4,2-.4,3.7.1,5.4,1.1.2,0,.2.2.2.4v4.6h0ZM34.2,30c-3.4,0-5.9-2.6-6.2-5.5-.3-2.8,1.5-5.8,4.8-6.5-2,.2-3.6,1.2-4.6,2.9-1.2,2.1-1.2,4.3,0,6.3,1.3,2.1,3.4,3,5.9,2.8Z"/>
  <path class="st1" d="M63,4l-1.4,1.3c-.9-1-2-1.5-3.2-1.5s-1.8.3-2.5,1c-.7.7-1,1.5-1,2.5s.1,1.3.4,1.8c.3.5.7,1,1.3,1.3.5.3,1.2.5,1.8.5s1.1-.1,1.6-.3c.5-.2,1-.6,1.6-1.2l1.3,1.4c-.8.7-1.5,1.3-2.2,1.6-.7.3-1.5.4-2.3.4-1.6,0-2.9-.5-3.9-1.5-1-1-1.5-2.3-1.5-3.9s.2-1.9.7-2.8c.5-.8,1.1-1.4,2-1.9.9-.5,1.8-.7,2.8-.7.9,0,1.7.2,2.5.5.8.4,1.5.9,2,1.5h0ZM69.8,1.9c1.5,0,2.7.5,3.8,1.6,1.1,1.1,1.6,2.4,1.6,3.9s-.5,2.8-1.6,3.8c-1,1-2.3,1.6-3.8,1.6s-2.8-.5-3.9-1.6c-1-1.1-1.5-2.3-1.5-3.8s.2-1.9.7-2.7c.5-.8,1.2-1.5,2-2,.8-.5,1.8-.7,2.7-.7h0ZM69.8,3.8c-1,0-1.8.3-2.4,1-.7.7-1,1.5-1,2.5s.4,2,1.2,2.7c.6.5,1.4.8,2.2.8.9,0,1.7-.3,2.4-1,.7-.7,1-1.5,1-2.5s-.3-1.8-1-2.5c-.3-.3-.7-.6-1.1-.8-.4-.2-.9-.3-1.3-.3h0ZM78.3,2.1h1.9l2.4,7.2,2.4-7.2h1.9l1.7,10.4h-1.9l-1.1-6.5-2.2,6.5h-1.7l-2.2-6.5-1.1,6.5h-1.9l1.8-10.4h0ZM93.5,2.1l2.4,7.2,2.4-7.2h1.9l1.7,10.4h-1.9l-1.1-6.5-2.2,6.5h-1.7l-2.2-6.5-1.1,6.5h-1.9l1.8-10.4h1.9ZM103.7,2.1h2v6.7c0,.6,0,1,.2,1.2.1.2.3.4.5.6.2.1.5.2.8.2s.6,0,.9-.2c.2-.2.4-.4.5-.6,0-.2.1-.7.1-1.4V2.1h2v6.2c0,1,0,1.8-.2,2.2-.1.4-.3.8-.7,1.2-.3.4-.7.7-1.1.8-.4.2-.9.3-1.5.3s-1.4-.2-2-.5c-.6-.3-1-.8-1.2-1.3-.2-.5-.4-1.4-.4-2.6V2.1h0ZM113.3,2.1h1.9l4.4,6.8V2.1h2v10.4h-1.9l-4.4-6.8v6.8h-2V2.1h0ZM124,2.1h2v10.4h-2V2.1ZM138,4l-1.4,1.3c-.9-1-2-1.5-3.2-1.5s-1.8.3-2.5,1c-.7.7-1,1.5-1,2.5s.1,1.3.4,1.8c.3.5.7,1,1.3,1.3.5.3,1.2.5,1.8.5s1.1-.1,1.6-.3,1-.6,1.6-1.2l1.3,1.4c-.8.7-1.5,1.3-2.2,1.6-.7.3-1.5.4-2.3.4-1.6,0-2.9-.5-3.9-1.5-1-1-1.5-2.3-1.5-3.9s.2-1.9.7-2.8,1.1-1.4,2-1.9c.9-.5,1.8-.7,2.8-.7.9,0,1.7.2,2.5.5.8.4,1.5.9,2,1.5h0ZM143.1,2.1h2l4,10.4h-2l-.8-2.1h-4.2l-.8,2.1h-2l4-10.4ZM144.1,4.9l-1.4,3.6h2.8l-1.4-3.6ZM149.9,2.1h5.7v1.9h-1.9v8.4h-2V4.1h-1.8v-1.9h0ZM157,2.1h2v10.4h-2V2.1ZM166.4,1.9c1.5,0,2.7.5,3.8,1.6,1.1,1.1,1.6,2.4,1.6,3.9s-.5,2.8-1.6,3.8c-1,1-2.3,1.6-3.8,1.6s-2.8-.5-3.9-1.6-1.5-2.3-1.5-3.8.2-1.9.7-2.7c.5-.8,1.2-1.5,2-2,.8-.5,1.7-.7,2.7-.7h0ZM166.3,3.8c-1,0-1.8.3-2.4,1s-1,1.5-1,2.5.4,2,1.2,2.7c.6.5,1.4.8,2.2.8.4,0,.9,0,1.3-.3.4-.2.8-.4,1.1-.8.7-.7,1-1.5,1-2.5s-.3-1.8-1-2.5c-.3-.3-.7-.6-1.1-.8-.4-.2-.9-.3-1.3-.3h0ZM173.8,2.1h1.9l4.4,6.8V2.1h2v10.4h-1.9l-4.4-6.8v6.8h-2V2.1ZM190.2,3.5l-1.5,1.3c-.5-.7-1-1.1-1.6-1.1s-.5,0-.6.2c-.2.1-.2.3-.2.5s0,.3.2.5c.2.2.6.6,1.4,1.3l1.4,1.2c.4.4.7.8.8,1.2.2.4.3.8.3,1.2,0,.8-.3,1.6-.9,2.1-.6.6-1.4.8-2.3.8s-1.4-.2-1.9-.5c-.5-.4-1-.9-1.4-1.7l1.7-1c.5.9,1.1,1.4,1.7,1.4s.6,0,.9-.3c.2-.2.3-.4.3-.7s0-.5-.3-.7c-.2-.2-.6-.6-1.1-1.1-1.1-.9-1.9-1.6-2.2-2.1-.3-.5-.5-1-.5-1.5,0-.7.3-1.3.8-1.8.5-.5,1.2-.8,2-.8s1,.1,1.5.4,1,.7,1.5,1.3h0ZM56.6,15.4h2l4,10.3h-2l-.8-2.1h-4.2l-.8,2.1h-2l4-10.3h0ZM57.6,18.2l-1.4,3.6h2.8l-1.4-3.6ZM66.3,15.4v8.5h2.9v1.9h-4.9v-10.3h2ZM71,15.4h2v8.5h2.9v1.9h-4.8v-10.3ZM77.4,15.4h2v10.4h-2v-10.4ZM85,15.4h2l4,10.3h-2l-.8-2.1h-4.2l-.8,2.1h-2l4-10.3ZM86,18.2l-1.4,3.6h2.8l-1.4-3.6h0ZM94.7,15.4l4.4,6.8v-6.8h2v10.4h-1.9l-4.4-6.8v6.8h-2v-10.4h1.9ZM113.2,17.2l-1.4,1.3c-.9-1-2-1.5-3.2-1.5s-1.8.3-2.5,1-1,1.5-1,2.5.1,1.3.4,1.8c.3.5.7,1,1.3,1.3.5.3,1.2.5,1.8.5s1.1-.1,1.6-.3c.5-.2,1-.6,1.6-1.2l1.3,1.4c-.8.7-1.5,1.3-2.2,1.6-.7.3-1.5.4-2.3.4-1.6,0-2.9-.5-3.9-1.5-1-1-1.5-2.3-1.5-3.9s.2-1.9.7-2.8c.5-.8,1.1-1.4,2-1.9.9-.5,1.8-.7,2.8-.7.9,0,1.7.2,2.5.5.8.4,1.5.9,2,1.5h0ZM115.2,15.4h5.7v1.9h-3.7v1.9h3.7v1.9h-3.7v2.7h3.7v1.9h-5.7v-10.4ZM127.2,15.4h2v8.5h2.9v1.9h-4.8v-10.3h0ZM132.8,15.4h5.7v1.9h-1.9v8.4h-2v-8.4h-1.8v-1.9h0ZM140.2,15.4h2.3c1.5,0,2.6.2,3.4.6.7.4,1.3,1,1.8,1.8.5.8.7,1.8.7,2.9s-.1,1.5-.4,2.2c-.3.7-.6,1.2-1.1,1.7-.5.4-1,.7-1.5.9-.5.2-1.5.3-2.8.3h-2.4v-10.4h0ZM142.1,17.3v6.5h.9c.9,0,1.6-.1,2-.3.4-.2.7-.6,1-1,.3-.5.4-1.1.4-1.8,0-1.1-.3-2-.9-2.6-.6-.5-1.4-.8-2.7-.8h-.7ZM56.4,29.5l2.4,7.2,2.4-7.2h1.9l1.7,10.3h-1.9l-1.1-6.5-2.2,6.5h-1.7l-2.2-6.5-1.1,6.5h-1.9l1.8-10.3h1.9ZM66.7,29.5h5.6v1.9h-3.7v1.9h3.7v1.9h-3.7v2.7h3.7v1.9h-5.6v-10.4ZM77.4,29.5l2.4,7.2,2.4-7.2h1.9l1.7,10.3h-1.9l-1.1-6.5-2.2,6.5h-1.7l-2.2-6.5-1.1,6.5h-1.9l1.8-10.3h1.9ZM87.7,39.9v-10.4h1.6c.9,0,1.6,0,2.1.2.6.2,1.1.5,1.5.9.4.4.5,1,.5,1.6s0,.8-.2,1.1c-.2.3-.4.6-.8.9.6.3,1.1.7,1.4,1.1.3.4.4,1,.4,1.6,0,.6-.2,1.1-.5,1.6-.3.5-.7.8-1.2,1.1-.5.2-1.1.4-2,.4h-2.9ZM89.6,31.4v2.2h.4c.5,0,.8-.1,1.1-.3s.3-.5.3-.8-.1-.6-.3-.8c-.2-.2-.6-.3-1-.3h-.5ZM89.6,35.4v2.7h.5c.8,0,1.4-.1,1.7-.3.3-.2.4-.5.4-.9s-.2-.8-.5-1.1c-.3-.3-.9-.4-1.7-.4h-.4ZM96.3,29.5h5.6v1.9h-3.7v1.9h3.7v1.9h-3.7v2.7h3.7v1.9h-5.6v-10.4h0ZM104.2,29.5h2.1c1.1,0,2,.1,2.4.3.5.2.9.5,1.2,1,.3.5.4,1,.4,1.7s-.2,1.2-.5,1.7c-.3.5-.8.8-1.5,1l2.5,4.6h-2.2l-2.3-4.4h-.2v4.4h-2v-10.4h0ZM106.1,33.6h.6c.6,0,1.1,0,1.3-.2.2-.2.4-.4.4-.8,0-.2,0-.4-.2-.6-.1-.2-.3-.3-.5-.4-.2,0-.6-.1-1.1-.1h-.5v2.1ZM52.3,43.4h.4l1,2.4,1.1-2.4h0l1.1,2.4,1-2.4h.4l-1.4,3.3h0l-1.1-2.4-1.1,2.4h0l-1.4-3.3Z"/>
  <path class="st1" d="M57.5,43.4h.4l1,2.4,1.1-2.4h0l1.1,2.4,1-2.4h.4l-1.4,3.3h0l-1.1-2.4-1.1,2.4h0l-1.4-3.3ZM62.6,43.4h.4l1,2.4,1.1-2.4h0l1.1,2.4,1-2.4h.4l-1.4,3.3h0l-1.1-2.4-1.1,2.4h0l-1.4-3.3h0ZM68.7,46s0,0,.1,0c0,0,0,0,.1,0,0,0,.1.2.1.3,0,0,0,0,0,.1,0,0,0,0,0,.1,0,0-.2.1-.3.1,0,0,0,0-.1,0,0,0,0,0-.1,0,0,0-.1-.2-.1-.3,0,0,0,0,0-.1,0,0,0,0,0-.1,0,0,0,0,.1,0,0,0,0,0,.1,0ZM73.1,44.1l-.3.2c-.3-.4-.7-.6-1.2-.6s-.7.1-1,.4c-.1.1-.2.3-.3.4,0,.2-.1.3,0,.5,0,.2,0,.5.2.7.1.2.3.4.5.5.2.1.5.2.7.2.5,0,.9-.2,1.2-.6l.3.2c-.2.2-.4.4-.6.6-.3.1-.6.2-.9.2-.5,0-1-.2-1.3-.5-.2-.2-.3-.3-.4-.6,0-.2-.1-.4-.1-.7,0-.3,0-.6.2-.9.2-.3.4-.5.7-.6.3-.2.6-.2.9-.2.2,0,.4,0,.6,0,.2,0,.4.2.5.3.1.1.3.2.4.4h0ZM75.5,43.3c.5,0,.9.2,1.3.6.3.3.5.8.5,1.2,0,.5-.2.9-.5,1.2-.3.3-.7.5-1.2.5s-.9-.2-1.2-.5-.5-.7-.5-1.2c0-.4.2-.9.5-1.2.2-.2.4-.3.6-.4s.5-.1.7-.1ZM75.5,43.7c-.2,0-.3,0-.5,0-.2,0-.3.2-.4.3-.3.3-.4.6-.4,1,0,.2,0,.5.2.7.1.2.3.4.5.5.2.1.4.2.6.2.2,0,.5,0,.6-.2.2-.1.4-.3.5-.5.1-.2.2-.4.2-.7,0-.2,0-.3,0-.5,0-.2-.2-.3-.3-.4-.3-.3-.6-.4-.9-.4h0ZM78,43.4h.4v.6c.1-.2.3-.4.5-.5.2-.1.4-.2.7-.2.2,0,.3,0,.5,0,.1,0,.3.1.4.2,0,.1.2.3.2.4.1-.3.3-.5.5-.6s.4-.2.7-.2c.2,0,.4,0,.6.2.2.1.3.3.4.5,0,.2.1.5.1.9v1.8h-.4v-1.8c0-.4,0-.6,0-.7,0-.1-.1-.2-.3-.3-.1,0-.3-.1-.4-.1-.2,0-.4,0-.6.2-.2.1-.3.3-.4.5,0,.2-.1.5-.1,1v1.3h-.4v-1.7c0-.4,0-.7,0-.8,0-.1-.1-.3-.3-.3-.1,0-.3-.1-.4-.1s-.4,0-.6.2c-.2.1-.3.3-.4.5,0,.2-.1.5-.1.9v1.4h-.4v-3.3h0ZM83.8,43.4h.4v.6c.1-.2.3-.4.5-.5.2-.1.4-.2.7-.2.2,0,.3,0,.5,0,.1,0,.3.1.4.2,0,.1.2.3.2.4.1-.3.3-.5.5-.6.2-.1.4-.2.7-.2.2,0,.4,0,.6.2.2.1.3.3.4.5,0,.2.1.5.1.9v1.8h-.4v-1.8c0-.4,0-.6,0-.7,0-.1-.1-.2-.3-.3-.1,0-.3-.1-.4-.1-.2,0-.4,0-.6.2-.2.1-.3.3-.4.5,0,.2-.1.5-.1,1v1.3h-.4v-1.7c0-.4,0-.7,0-.8,0-.1-.1-.3-.3-.3-.1,0-.3-.1-.4-.1s-.4,0-.6.2c-.2.1-.3.3-.4.5,0,.2-.1.5-.1.9v1.4h-.4v-3.3h0ZM91.3,43.7l-.3.3c-.2-.2-.4-.3-.7-.3-.1,0-.3,0-.4.1,0,0-.1.2-.1.3s0,.2.1.3c0,0,.3.2.5.3.3.2.5.3.6.5.1.2.2.3.2.5,0,.1,0,.3,0,.4,0,.1-.1.2-.2.3-.2.2-.4.3-.7.3s-.4,0-.5-.1c-.2,0-.3-.2-.4-.3l.3-.3c.2.2.4.4.7.4s.3,0,.4-.2c.1-.1.2-.2.2-.4,0-.1,0-.2-.1-.3,0,0-.3-.2-.5-.4-.3-.2-.5-.3-.6-.5-.1-.1-.2-.3-.2-.5,0-.3,0-.5.3-.6.2-.2.4-.2.6-.2.3,0,.6.1.9.4h0ZM95.4,43.4v3.3h-.4v-.6c-.2.2-.4.4-.6.5-.2.1-.5.2-.7.2-.5,0-.9-.2-1.2-.5-.3-.3-.5-.8-.5-1.2,0-.2,0-.5.1-.7,0-.2.2-.4.4-.6.2-.2.3-.3.5-.4.2,0,.4-.1.7-.1.3,0,.5,0,.7.2.2.1.4.3.6.5v-.6h.4ZM93.7,43.7c-.2,0-.5,0-.7.2-.2.1-.4.3-.5.5-.1.2-.2.4-.2.7,0,.2,0,.5.2.7.1.2.3.4.5.5.2.1.4.2.6.2.2,0,.5,0,.7-.2.2-.1.4-.3.5-.5.1-.2.2-.4.2-.7,0-.4-.1-.7-.4-1-.3-.3-.6-.4-.9-.4h0ZM96.2,42.1h.4v4.6h-.4v-4.6ZM97.5,42.1h.4v4.6h-.4v-4.6ZM98.9,42s0,0,.1,0c0,0,0,0,.1,0s0,0,0,.1c0,0,0,0,0,.1,0,0,0,.2-.1.2,0,0,0,0-.1,0,0,0,0,0-.1,0,0,0-.2,0-.2-.1,0,0-.1-.2-.1-.2,0,0,0,0,0-.1,0,0,0,0,0-.1,0,0,0,0,.1,0,0,0,0,0,.1,0ZM98.7,43.4h.4v3.3h-.4v-3.3ZM103.3,43.4v3.3h-.4v-.6c-.2.2-.4.4-.6.5-.2.1-.5.2-.7.2-.2,0-.4,0-.7-.1-.2,0-.4-.2-.5-.4-.3-.3-.5-.8-.5-1.2,0-.2,0-.5.1-.7,0-.2.2-.4.4-.6.3-.3.7-.5,1.2-.5.3,0,.5,0,.7.2.2.1.4.3.6.5v-.6h.4ZM101.6,43.7c-.2,0-.5,0-.7.2-.2.1-.4.3-.5.5-.1.2-.2.4-.2.7s0,.5.2.7c.1.2.3.4.5.5.2.1.4.2.6.2.2,0,.5,0,.7-.2.2-.1.4-.3.5-.5.1-.2.2-.4.2-.7,0-.4-.1-.7-.4-1-.3-.3-.6-.4-.9-.4h0ZM104.3,43.4h.4v.6c.2-.2.4-.4.6-.5.2-.1.4-.2.7-.2.2,0,.5,0,.7.2.2.1.3.3.4.5,0,.2.1.5.1,1v1.7h-.4v-1.6c0-.4,0-.6,0-.8,0-.2-.1-.4-.3-.5-.1-.1-.3-.2-.5-.2-.3,0-.5,0-.7.3-.2.2-.3.4-.4.6,0,.2,0,.5,0,.9v1.2h-.4v-3.3h0ZM111.2,44.1l-.3.2c-.3-.4-.7-.6-1.2-.6s-.7.1-1,.4c-.1.1-.2.3-.3.4s-.1.3,0,.5c0,.2,0,.5.2.7.1.2.3.4.5.5.2.1.5.2.7.2.5,0,.9-.2,1.2-.6l.3.2c-.2.2-.4.4-.6.6-.3.1-.6.2-.9.2-.5,0-1-.2-1.3-.5-.2-.2-.3-.3-.4-.6,0-.2-.1-.4-.1-.7,0-.3,0-.6.2-.9.2-.3.4-.5.7-.6.3-.2.6-.2.9-.2s.4,0,.6,0c.2,0,.4.2.5.3.1.1.3.3.4.4h0ZM114.8,45.6l.4.2c-.1.2-.3.4-.4.6s-.3.2-.5.3c-.2,0-.4.1-.7.1-.5,0-1-.2-1.3-.5-.3-.4-.5-.8-.5-1.2,0-.4.1-.8.4-1.1.3-.4.8-.6,1.3-.6s1,.2,1.3.6c.2.3.4.7.4,1.1h-3c0,.4.1.7.4.9.1.1.2.2.4.3.2,0,.3,0,.5,0,.2,0,.3,0,.5,0,.2,0,.3-.1.4-.2.1-.1.2-.3.4-.5h0ZM114.8,44.7c0-.2-.1-.4-.2-.5-.1-.1-.3-.3-.4-.3-.2,0-.4-.1-.6-.1-.3,0-.6.1-.8.3-.2.2-.3.4-.4.7h2.5ZM116.6,46s0,0,.1,0c0,0,0,0,.1,0,0,0,.1.2.1.3,0,0,0,0,0,.1,0,0,0,0,0,.1,0,0-.2.1-.3.1s-.2,0-.3-.1c0,0,0,0,0-.1,0,0,0,0,0-.1,0-.1,0-.2.1-.3,0,0,.2-.1.3-.1h0ZM121,44.1l-.3.2c-.3-.4-.7-.6-1.2-.6s-.7.1-1,.4c-.3.3-.4.6-.4.9,0,.2,0,.5.2.7.1.2.3.4.5.5.2.1.5.2.7.2.2,0,.5,0,.7-.1.2-.1.4-.2.5-.4l.3.2c-.2.2-.4.4-.6.6-.3.1-.6.2-.9.2-.5,0-1-.2-1.3-.5-.2-.2-.3-.3-.4-.6,0-.2-.1-.4-.1-.7,0-.3,0-.6.2-.9.2-.3.4-.5.7-.6.3-.2.6-.2.9-.2.2,0,.4,0,.6,0,.2,0,.4.2.5.3.1.1.3.2.4.4h0ZM123.4,43.3c.2,0,.5,0,.7.1.2,0,.4.2.6.4.3.3.5.7.5,1.2,0,.5-.2.9-.5,1.2-.3.3-.7.5-1.2.5s-.9-.2-1.2-.5c-.3-.3-.5-.8-.5-1.2,0-.5.2-.9.5-1.2.3-.4.8-.6,1.3-.6h0ZM123.4,43.7c-.4,0-.7.1-.9.4-.1.1-.2.3-.3.4,0,.2,0,.3,0,.5,0,.2,0,.5.2.7.1.2.3.4.5.5.2.1.4.2.6.2.2,0,.5,0,.6-.2.2-.1.4-.3.5-.5.1-.2.2-.4.2-.7,0-.4-.1-.7-.4-1-.3-.3-.6-.4-.9-.4h0ZM125.9,43.4h.4v.6c.1-.2.3-.4.5-.5.2-.1.4-.2.7-.2.2,0,.3,0,.5,0,.1,0,.3.1.4.2,0,.1.2.3.2.4.1-.3.3-.5.5-.6.2-.1.4-.2.7-.2.2,0,.4,0,.6.2.2.1.3.3.4.5,0,.2.1.5.1.9v1.8h-.4v-1.8c0-.4,0-.6,0-.7,0-.1-.1-.2-.3-.3-.1,0-.3-.1-.4-.1-.2,0-.4,0-.6.2-.2.1-.3.3-.4.5,0,.2-.1.5-.1,1v1.3h-.4v-1.7c0-.4,0-.7,0-.8,0-.1-.1-.3-.3-.3-.1,0-.3-.1-.4-.1s-.4,0-.6.2c-.2.1-.3.3-.4.5,0,.2-.1.5-.1.9v1.4h-.4v-3.3h0ZM132.2,46s0,0,.1,0c0,0,0,0,.1,0,0,0,.1.2.1.3,0,0,0,0,0,.1s0,0,0,.1c0,0-.2.1-.3.1,0,0,0,0-.1,0,0,0,0,0-.1,0,0,0,0,0,0-.1,0,0,0,0,0-.1,0-.1,0-.2.1-.3,0,0,0,0,.1,0,0,0,0,0,.1,0h0ZM136.7,43.4v3.3h-.4v-.6c-.2.2-.4.4-.6.5-.2.1-.5.2-.7.2-.2,0-.4,0-.7-.1-.2,0-.4-.2-.5-.4-.2-.2-.3-.4-.4-.6,0-.2-.1-.4-.1-.7,0-.2,0-.5.1-.7,0-.2.2-.4.4-.6.2-.2.3-.3.5-.4.2,0,.4-.1.7-.1.3,0,.5,0,.7.2.2.1.4.3.6.5v-.6h.4ZM135,43.7c-.2,0-.5,0-.7.2-.2.1-.4.3-.5.5-.1.2-.2.4-.2.7s0,.5.2.7c.1.2.3.4.5.5.2.1.4.2.6.2.2,0,.5,0,.7-.2.2-.1.4-.3.5-.5.1-.2.2-.4.2-.7,0-.4-.1-.7-.4-1-.3-.3-.6-.4-.9-.4h0ZM137.6,43.4h.4v1.5c0,.4,0,.6,0,.8,0,.2.2.4.3.5.2.1.4.2.6.2s.4,0,.6-.2c.2-.1.3-.3.3-.5,0-.1,0-.4,0-.8v-1.5h.4v1.6c0,.5,0,.8-.2,1-.1.2-.3.4-.5.5-.2.1-.5.2-.8.2s-.6,0-.8-.2c-.2-.1-.4-.3-.5-.5-.1-.2-.2-.6-.2-1.1v-1.6h0Z"/>
</svg>