<?xml version="1.0" encoding="UTF-8"?>
<svg id="Layer_1" xmlns="http://www.w3.org/2000/svg" version="1.1" viewBox="0 0 159 48">
  <!-- Generator: Adobe Illustrator 29.2.0, SVG Export Plug-In . SVG Version: 2.1.0 Build 108)  -->
  <defs>
    <style>
      .st0 {
        fill-rule: evenodd;
      }

      .st0, .st1 {
        fill: #cbd5e1;
      }
    </style>
  </defs>
  <path class="st0" d="M28.1,22.8l12-12v-5c-3.1-2.7-6.9-4.5-11-5.4C24.4-.5,19.6,0,15.2,1.8c-4.4,1.8-8.1,4.9-10.8,8.8C1.8,14.6.4,19.3.4,24s1.4,9.4,4,13.3c2.6,3.9,6.4,7,10.8,8.8,4.4,1.8,9.2,2.3,13.9,1.4,4.1-.8,7.9-2.7,11-5.4v-5l-12-12c-.7-.7-.7-1.7,0-2.4ZM16.5,5c3.8-1.6,7.9-2,11.9-1.2,3.5.7,6.7,2.2,9.3,4.5l-1.7,1.7c-2.3-1.9-5.1-3.3-8.1-3.8-3.5-.7-7.2-.3-10.5,1-3.3,1.4-6.1,3.7-8.1,6.7-2,3-3.1,6.5-3.1,10.1s1.1,7.1,3.1,10.1c2,3,4.8,5.3,8.1,6.7,3.3,1.4,7,1.7,10.5,1,3-.6,5.7-1.9,8.1-3.8l1.7,1.7c-2.7,2.3-5.9,3.8-9.3,4.5-4,.8-8.1.4-11.9-1.2-3.8-1.6-7-4.2-9.2-7.6-2.3-3.4-3.5-7.4-3.5-11.4s1.2-8.1,3.5-11.4c2.3-3.4,5.5-6,9.2-7.6ZM27.2,9.5c-2.9-.6-5.8-.3-8.5.8-2.7,1.1-5,3-6.6,5.4-1.6,2.4-2.5,5.3-2.5,8.2s.9,5.8,2.5,8.2c1.6,2.4,3.9,4.3,6.6,5.4,2.7,1.1,5.7,1.4,8.5.8,2.3-.5,4.5-1.5,6.3-2.9l-2-2c-1.4,1.1-3.1,1.8-4.9,2.2-2.3.5-4.7.2-6.9-.7s-4.1-2.4-5.4-4.4c-1.3-2-2-4.3-2-6.6s.7-4.7,2-6.6c1.3-2,3.2-3.5,5.4-4.4,2.2-.9,4.6-1.1,6.9-.7,1.8.4,3.4,1.1,4.9,2.2l2-2c-1.8-1.5-4-2.5-6.3-2.9ZM29.1,16.9c-.9-.6-2-1.1-3.1-1.3-1.7-.3-3.4-.2-4.9.5-1.6.6-2.9,1.7-3.8,3.2-.9,1.4-1.4,3.1-1.4,4.8s.5,3.3,1.4,4.8c.9,1.4,2.3,2.5,3.8,3.2,1.6.6,3.3.8,4.9.5,1.1-.2,2.2-.7,3.1-1.3l-3.5-3.5c-2-2-2-5.2,0-7.2l3.5-3.5Z"/>
  <path class="st1" d="M36.5,22.8l3.6-3.6v-4.8l-6,6c-2,2-2,5.2,0,7.2l6,6v-4.8l-3.6-3.6c-.7-.7-.7-1.7,0-2.4Z"/>
  <path class="st1" d="M59.6,25.7c0,1.4-.7,2.2-2.2,2.2h-3.8c-1.4,0-2.2-.7-2.2-2.2v-8.6c0-1.4.7-2.2,2.2-2.2h3.8c1.4,0,2.2.7,2.2,2.2h1.6c0-2.5-1.3-3.8-3.8-3.8h-3.8c-2.5,0-3.8,1.3-3.8,3.8v8.6c0,2.5,1.3,3.8,3.8,3.8h3.8c2.5,0,3.8-1.3,3.8-3.8h-1.6Z"/>
  <path class="st0" d="M66.6,18.1c-2.5,0-3.8,1.3-3.8,3.8v3.8c0,2.5,1.3,3.8,3.8,3.8h3.8c2.5,0,3.8-1.3,3.8-3.8v-3.8c0-2.5-1.3-3.8-3.8-3.8h-3.8ZM64.4,21.9c0-1.4.7-2.2,2.2-2.2h3.8c1.4,0,2.2.7,2.2,2.2v3.8c0,1.4-.7,2.2-2.2,2.2h-3.8c-1.4,0-2.2-.7-2.2-2.2v-3.8Z"/>
  <path class="st1" d="M80.1,19.7h-2.7v9.7h-1.6v-11.3h4.3c1.7,0,3,.4,3.9,1.2.3-.8,1-1.2,2-1.2h2.2c3.6,0,5.4,1.8,5.4,5.4v5.9h-1.6v-5.9c0-2.5-1.3-3.8-3.8-3.8h-2.2c-.4,0-.5.2-.5.5v9.2h-1.6v-5.9c0-2.5-1.3-3.8-3.8-3.8Z"/>
  <path class="st1" d="M96.8,19.7h2.7c2.5,0,3.8,1.3,3.8,3.8v5.9h1.6v-9.2c0-.4.2-.5.5-.5h2.2c2.5,0,3.8,1.3,3.8,3.8v5.9h1.6v-5.9c0-3.6-1.8-5.4-5.4-5.4h-2.2c-1.1,0-1.8.4-2,1.2-.9-.8-2.2-1.2-3.9-1.2h-4.3v11.3h1.6v-9.7Z"/>
  <path class="st1" d="M122.2,27.8c1.4,0,2.2-.7,2.2-2.2h1.6c0,2.5-1.3,3.8-3.8,3.8h-3.8c-2.5,0-3.8-1.3-3.8-3.8v-8.6c0-2.5,1.3-3.8,3.8-3.8h3.8c2.5,0,3.8,1.3,3.8,3.8h-1.6c0-1.4-.7-2.2-2.2-2.2h-3.8c-1.4,0-2.2.7-2.2,2.2v8.6c0,1.4.7,2.2,2.2,2.2h3.8Z"/>
  <path class="st0" d="M131.4,18.1c-2.5,0-3.8,1.3-3.8,3.8v3.8c0,2.5,1.3,3.8,3.8,3.8h3.8c2.5,0,3.8-1.3,3.8-3.8v-3.8c0-2.5-1.3-3.8-3.8-3.8h-3.8ZM129.2,21.9c0-1.4.7-2.2,2.2-2.2h3.8c1.4,0,2.2.7,2.2,2.2v3.8c0,1.4-.7,2.2-2.2,2.2h-3.8c-1.4,0-2.2-.7-2.2-2.2v-3.8Z"/>
  <path class="st1" d="M144.9,19.7h-2.7v9.7h-1.6v-11.3h4.3c1.7,0,3,.4,3.9,1.2.3-.8,1-1.2,2-1.2h2.2c3.6,0,5.4,1.8,5.4,5.4v5.9h-1.6v-5.9c0-2.5-1.3-3.8-3.8-3.8h-2.2c-.4,0-.5.2-.5.5v9.2h-1.6v-5.9c0-2.5-1.3-3.8-3.8-3.8Z"/>
  <path class="st1" d="M52,36.4c0,.3-.2.5-.5.5h-.9c-.3,0-.5-.2-.5-.5v-2c0-.3.2-.5.5-.5h.9c.3,0,.5.2.5.5h.4c0-.6-.3-.9-.9-.9h-.9c-.6,0-.9.3-.9.9v2c0,.6.3.9.9.9h.9c.6,0,.9-.3.9-.9h-.4Z"/>
  <path class="st0" d="M54,35.6c0-.6.3-.9.9-.9h.9c.6,0,.9.3.9.9v.9c0,.6-.3.9-.9.9h-.9c-.6,0-.9-.3-.9-.9v-.9ZM54.8,35.1c-.3,0-.5.2-.5.5v.9c0,.3.2.5.5.5h.9c.3,0,.5-.2.5-.5v-.9c0-.3-.2-.5-.5-.5h-.9Z"/>
  <path class="st1" d="M58.5,35.1h.6c.6,0,.9.3.9.9v1.3h.4v-2.1c0,0,0-.1.1-.1h.5c.6,0,.9.3.9.9v1.3h.4v-1.3c0-.8-.4-1.2-1.2-1.2h-.5c-.2,0-.4,0-.5.3-.2-.2-.5-.3-.9-.3h-1v2.6h.4v-2.2Z"/>
  <path class="st1" d="M64.7,35.1h-.6v2.2h-.4v-2.6h1c.4,0,.7,0,.9.3,0-.2.2-.3.5-.3h.5c.8,0,1.2.4,1.2,1.2v1.3h-.4v-1.3c0-.6-.3-.9-.9-.9h-.5c0,0-.1,0-.1.1v2.1h-.4v-1.3c0-.6-.3-.9-.9-.9Z"/>
  <path class="st1" d="M69.6,34.7h-.4v1.7c0,.6.3.9.9.9h.9c.6,0,.9-.3.9-.9v-1.7h-.4v1.7c0,.3-.2.5-.5.5h-.9c-.3,0-.5-.2-.5-.5v-1.7Z"/>
  <path class="st1" d="M74.7,35.1h-1v2.2h-.4v-2.6h1.3c.8,0,1.2.4,1.2,1.2v1.3h-.4v-1.3c0-.6-.3-.9-.9-.9Z"/>
  <path class="st1" d="M77.5,34.7v2.6h.4v-2.6h-.4Z"/>
  <path class="st1" d="M77.7,34.4c-.2,0-.2,0-.2-.2s0-.2.2-.2.2,0,.2.2,0,.2-.2.2Z"/>
  <path class="st1" d="M81.6,36.4c0,.3-.2.5-.5.5h-.9c-.3,0-.5-.2-.5-.5v-.9c0-.3.2-.5.5-.5h.9c.3,0,.5.2.5.5h.4c0-.6-.3-.9-.9-.9h-.9c-.6,0-.9.3-.9.9v.9c0,.6.3.9.9.9h.9c.6,0,.9-.3.9-.9h-.4Z"/>
  <path class="st0" d="M85.3,35.1h-.9c-.3,0-.5.2-.5.5h-.4c0-.6.3-.9.9-.9h.9c.6,0,.9.3.9.9v.9c0,.6-.3.9-.9.9h-.9c-.6,0-.9-.2-.9-.7s.1-.6.4-.6l1.8-.4c0-.3-.2-.4-.5-.4ZM85.3,36.9c.3,0,.5-.2.5-.5v-.5l-1.7.4c0,0,0,0,0,.1,0,.3.2.5.5.5h.9Z"/>
  <path class="st1" d="M88.9,36.9c-.3,0-.5-.2-.5-.5v-1.3h.6v-.4h-.6v-.6h-.4v.6h-.4v.4h.4v1.3c0,.6.3.9.9.9h.2v-.4h-.2Z"/>
  <path class="st1" d="M90.7,37.3v-2.6h.4v2.6h-.4Z"/>
  <path class="st1" d="M90.7,34.1c0,.2,0,.2.2.2s.2,0,.2-.2,0-.2-.2-.2-.2,0-.2.2Z"/>
  <path class="st0" d="M92.7,35.6c0-.6.3-.9.9-.9h.9c.6,0,.9.3.9.9v.9c0,.6-.3.9-.9.9h-.9c-.6,0-.9-.3-.9-.9v-.9ZM93.5,35.1c-.3,0-.5.2-.5.5v.9c0,.3.2.5.5.5h.9c.3,0,.5-.2.5-.5v-.9c0-.3-.2-.5-.5-.5h-.9Z"/>
  <path class="st1" d="M97.2,35.1h1c.6,0,.9.3.9.9v1.3h.4v-1.3c0-.8-.4-1.2-1.2-1.2h-1.3v2.6h.4v-2.2Z"/>
  <path class="st1" d="M100.9,37.3v-.4h1.8c.2,0,.4-.1.4-.4s-.1-.4-.4-.4h-1.1c-.5,0-.7-.2-.7-.7s.2-.7.7-.7h1.8v.4h-1.8c-.2,0-.4.1-.4.4s.1.4.4.4h1.1c.5,0,.7.2.7.7s-.2.7-.7.7h-1.8Z"/>
  <path class="st1" d="M109.7,36.4c0,.3-.2.5-.5.5h-.9c-.3,0-.5-.2-.5-.5v-2c0-.3.2-.5.5-.5h.9c.3,0,.5.2.5.5h.4c0-.6-.3-.9-.9-.9h-.9c-.6,0-.9.3-.9.9v2c0,.6.3.9.9.9h.9c.6,0,.9-.3.9-.9h-.4Z"/>
  <path class="st0" d="M111.6,35.6c0-.6.3-.9.9-.9h.9c.6,0,.9.3.9.9v.9c0,.6-.3.9-.9.9h-.9c-.6,0-.9-.3-.9-.9v-.9ZM111.9,35.6v.9c0,.3.2.5.5.5h.9c.3,0,.5-.2.5-.5v-.9c0-.3-.2-.5-.5-.5h-.9c-.3,0-.5.2-.5.5Z"/>
  <path class="st1" d="M116.1,35.1h.6c.6,0,.9.3.9.9v1.3h.4v-2.1c0,0,0-.1.1-.1h.5c.6,0,.9.3.9.9v1.3h.4v-1.3c0-.8-.4-1.2-1.2-1.2h-.5c-.2,0-.4,0-.5.3-.2-.2-.5-.3-.9-.3h-1v2.6h.4v-2.2Z"/>
  <path class="st0" d="M123,34.7c.6,0,.9.3.9.9v.9c0,.6-.3.9-.9.9h-1.3v1.1h-.4v-2.8c0-.6.3-.9.9-.9h.9ZM123,35.1h-.9c-.3,0-.5.2-.5.5v1.3h1.3c.3,0,.5-.2.5-.5v-.9c0-.3-.2-.5-.5-.5Z"/>
  <path class="st1" d="M125.8,33.6h-.4v3.7h.4v-3.7Z"/>
  <path class="st1" d="M127.4,37.3v-2.6h.4v2.6h-.4Z"/>
  <path class="st1" d="M127.3,34.1c0,.2,0,.2.2.2s.2,0,.2-.2,0-.2-.2-.2-.2,0-.2.2Z"/>
  <path class="st0" d="M131,35.1h-.9c-.3,0-.5.2-.5.5h-.4c0-.6.3-.9.9-.9h.9c.6,0,.9.3.9.9v.9c0,.6-.3.9-.9.9h-.9c-.6,0-.9-.2-.9-.7s.1-.6.4-.6l1.8-.4c0-.3-.2-.4-.5-.4ZM131,36.9c.3,0,.5-.2.5-.5v-.5l-1.7.4c0,0-.1,0-.1.1,0,.3.2.5.5.5h.9Z"/>
  <path class="st1" d="M133.8,35.1h1c.6,0,.9.3.9.9v1.3h.4v-1.3c0-.8-.4-1.2-1.2-1.2h-1.3v2.6h.4v-2.2Z"/>
  <path class="st1" d="M139.2,36.9c.3,0,.5-.2.5-.5h.4c0,.6-.3.9-.9.9h-.9c-.6,0-.9-.3-.9-.9v-.9c0-.6.3-.9.9-.9h.9c.6,0,.9.3.9.9h-.4c0-.3-.2-.5-.5-.5h-.9c-.3,0-.5.2-.5.5v.9c0,.3.2.5.5.5h.9Z"/>
  <path class="st0" d="M143.8,36.4c0,.3-.2.5-.5.5h-.9c-.3,0-.5-.1-.5-.4l1.8-.4c.2,0,.4-.3.4-.6s-.3-.7-.9-.7h-.9c-.6,0-.9.3-.9.9v.9c0,.6.3.9.9.9h.9c.6,0,.9-.3.9-.9h-.4ZM142,36.1v-.5c0-.3.2-.5.5-.5h.9c.3,0,.5.2.5.5s0,.1,0,.1l-1.7.4Z"/>
  <path class="st1" d="M148,33.6h.4v3.3h2.2v.4h-2.6v-3.7Z"/>
  <path class="st1" d="M153.4,36.9c-.3,0-.5-.2-.5-.5v-1.3h.6v-.4h-.6v-.6h-.4v.6h-.4v.4h.4v1.3c0,.6.3.9.9.9h.2v-.4h-.2Z"/>
  <path class="st0" d="M156,37.3c-.6,0-.9-.3-.9-.9v-.9c0-.6.3-.9.9-.9h1.3v-1.1h.4v2.8c0,.6-.3.9-.9.9h-.9ZM155.5,36.4c0,.3.2.5.5.5h.9c.3,0,.5-.2.5-.5v-1.3h-1.3c-.3,0-.5.2-.5.5v.9Z"/>
</svg>