<?xml version="1.0" encoding="UTF-8"?>
<svg id="Layer_1" xmlns="http://www.w3.org/2000/svg" version="1.1" viewBox="0 0 197 48">
  <!-- Generator: Adobe Illustrator 29.2.0, SVG Export Plug-In . SVG Version: 2.1.0 Build 108)  -->
  <defs>
    <style>
      .st0 {
        fill: #cbd5e1;
      }
    </style>
  </defs>
  <path class="st0" d="M70.3,28.5h6.6l-3.3-11.6h0s-2.8,9.7-2.8,9.7l-.5,1.9ZM90.8,42.2h-10v-.3c-.1,0-.3-.6-.3-.6l-1.4-5.3h-11l-1.6,5.3-.2.6v.3h-10.1l.2-.6.3-1,11.1-35.1.2-.5v-.3h11.2v.3c.1,0,.3.6.3.6l10.9,35.1.3,1,.2.6Z"/>
  <path class="st0" d="M102,21h4.4c4.3,0,4.9-1.7,4.9-4.3s-.6-4.2-4.9-4.2h-4.4v8.5ZM102,42.1h-9.4V4.6h13.8c4.2,0,7.5.9,9.8,2.8,2.5,2,3.8,5.3,3.8,9.4s-1.4,7.7-3.8,9.7c-2.3,1.8-5.6,2.8-9.8,2.8h-4.4v13Z"/>
  <path class="st0" d="M31.7,20.2c1.1,0,2.1-.5,2.8-1.2.7-.7,1.2-1.7,1.2-2.8,0-2.1-1.8-3.9-3.9-3.9-2.1,0-4,1.7-4,3.9,0,2.2,1.8,4,4,4Z"/>
  <path class="st0" d="M31.6,28c-2.1,0-4,1.7-4,3.9,0,2.2,1.8,4,4,4,1.1,0,2.1-.5,2.8-1.2.7-.7,1.2-1.7,1.2-2.8,0-2.1-1.8-3.9-3.9-3.9Z"/>
  <path class="st0" d="M19.8,20.2c1.1,0,2.1-.5,2.8-1.2.7-.7,1.2-1.7,1.2-2.8,0-2.1-1.8-3.9-3.9-3.9-2.1,0-4,1.7-4,3.9,0,2.2,1.8,4,4,4Z"/>
  <path class="st0" d="M19.7,28c-2.1,0-4,1.7-4,3.9,0,2.2,1.8,4,4,4,1.1,0,2.1-.5,2.8-1.2.7-.7,1.2-1.7,1.2-2.8,0-2.1-1.8-3.9-3.9-3.9Z"/>
  <path class="st0" d="M21.3,2.1c-8.1,2.4-10,9.3-12.3,16.4-2.4,7.7-4.1,14.5.7,19.9l-1.4,1.2C1.2,32.4-.5,24.5,2.1,16.4,5.3,6.6,12.1,1.7,20.9,0l.4,2.1Z"/>
  <path class="st0" d="M42.3,8.5c6.2,6.5,8.9,14.4,5.8,24.2-2.6,8-8.5,13.6-18.6,15.3l-.4-1.8c7-1.7,9.7-8.1,12.1-15.8,2.3-7.1,4.7-13.9-.5-20.5l1.6-1.4Z"/>
  <path class="st0" d="M123.5,42.2V5.2h5.4l12.2,18.7c2.8,4.3,5,8.2,6.8,12h.1c-.5-5-.6-9.5-.6-15.2V5.2h4.6v37h-5l-12.1-18.8c-2.7-4.1-5.2-8.3-7.1-12.3h-.2c.3,4.7.4,9.2.4,15.3v15.8h-4.6Z"/>
  <path class="st0" d="M163.7,42.2h-4.9V5.2h4.9v37Z"/>
  <path class="st0" d="M195.6,37.2c-2.6,1-4.8,1.4-7.7,1.4-8.7,0-14.3-6.1-14.3-15.4s5.6-14.5,13.4-14.5,5.7.7,8.1,2.2l1.3-4.1c-.7-.4-1.4-.7-2.3-1-2.2-.8-4.5-1.2-6.9-1.2-10.6,0-18.6,8.2-18.6,19s7.9,19.3,19,19.3,3.2-.2,5.1-.6c1.5-.4,2.4-.7,3.9-1.3l-1-3.7Z"/>
</svg>