<?xml version="1.0" encoding="UTF-8"?>
<svg id="Layer_1" xmlns="http://www.w3.org/2000/svg" version="1.1" viewBox="0 0 192 48">
  <!-- Generator: Adobe Illustrator 29.2.0, SVG Export Plug-In . SVG Version: 2.1.0 Build 108)  -->
  <defs>
    <style>
      .st0 {
        fill: #cbd5e1;
      }
    </style>
  </defs>
  <path class="st0" d="M67.2,7.1h-2.8v-1.8h7.6v1.8h-2.8v7.4h-2v-7.4Z"/>
  <path class="st0" d="M76.4,10.4c0-.7-.8-1-1.5-1s-1.3.4-1.5,1h3.1ZM73.4,11.8c0,.6.7,1.1,1.8,1.1s1.2-.1,1.7-.5l1.1,1.2c-.7.7-1.8,1-2.8,1-2.3,0-3.6-1.4-3.6-3.4s1.3-3.3,3.4-3.3,3.6,1.4,3.2,4h-4.8Z"/>
  <path class="st0" d="M81.3,5.3v9.2h-1.9V5.3h1.9Z"/>
  <path class="st0" d="M87.5,10.4c0-.7-.8-1-1.5-1s-1.3.4-1.5,1h3.1ZM84.4,11.8c0,.6.7,1.1,1.8,1.1s1.2-.1,1.7-.5l1.1,1.2c-.7.7-1.8,1-2.8,1-2.3,0-3.6-1.4-3.6-3.4s1.3-3.3,3.4-3.3,3.6,1.4,3.2,4h-4.8Z"/>
  <path class="st0" d="M96.2,13.6c-.8.8-1.7,1-2.5,1-1.9,0-3.5-1-3.5-3.4s1.6-3.4,3.5-3.4,1.7.2,2.3.9l-1,1.2c-.4-.3-.8-.4-1.2-.4-.9,0-1.7.6-1.7,1.7s.8,1.6,1.7,1.6,1-.2,1.3-.5l1.2,1.2Z"/>
  <path class="st0" d="M101.7,11.2c0-.8-.5-1.7-1.6-1.7s-1.6.9-1.6,1.7.5,1.7,1.6,1.7,1.6-.8,1.6-1.7ZM96.6,11.2c0-2,1.4-3.4,3.5-3.4s3.6,1.4,3.6,3.4-1.4,3.4-3.6,3.4-3.5-1.4-3.5-3.4Z"/>
  <path class="st0" d="M108.8,14.4v-3.5c0-.9-.3-1.4-1.1-1.4s-1.2.7-1.2,1.4v3.5h-1.9v-6.5h1.7v.7c.5-.7,1.3-.9,1.8-.9s1.5.3,1.9,1.2c.6-.9,1.2-1.2,2.2-1.2s2.6.7,2.6,3.1v3.5h-1.9v-3.5c0-.8-.2-1.4-1-1.4s-1.2.6-1.2,1.4v3.5h-1.9Z"/>
  <path class="st0" d="M120.1,14.4v-3.5c0-.9-.3-1.4-1.1-1.4s-1.2.7-1.2,1.4v3.5h-1.9v-6.5h1.7v.7c.5-.7,1.3-.9,1.8-.9s1.5.3,1.9,1.2c.6-.9,1.2-1.2,2.2-1.2s2.6.7,2.6,3.1v3.5h-1.9v-3.5c0-.8-.2-1.4-1-1.4s-1.2.6-1.2,1.4v3.5h-1.9Z"/>
  <path class="st0" d="M129.1,8v3.4c0,1,.4,1.5,1.3,1.5.9,0,1.5-.7,1.5-1.6v-3.3h1.9v6.5h-1.7v-.9c-.6.8-1.4,1-2.2,1-1.5,0-2.7-.7-2.7-3.2v-3.4h1.9Z"/>
  <path class="st0" d="M140.1,14.4v-3.4c0-1-.4-1.5-1.3-1.5-.9,0-1.5.7-1.5,1.6v3.3h-1.9v-6.5h1.7v.8c.6-.7,1.4-1,2.2-1,1.5,0,2.7.7,2.7,3.2v3.4h-1.9Z"/>
  <path class="st0" d="M143.5,7.9v6.5h1.9v-6.5h-1.9ZM145.5,6.2c0,1.4-2.2,1.4-2.2,0s2.2-1.4,2.2,0Z"/>
  <path class="st0" d="M152.7,13.6c-.8.8-1.7,1-2.5,1-1.9,0-3.5-1-3.5-3.4s1.6-3.4,3.5-3.4,1.7.2,2.3.9l-1,1.2c-.4-.3-.8-.4-1.2-.4-.9,0-1.7.6-1.7,1.7s.8,1.6,1.7,1.6,1-.2,1.3-.5l1.2,1.2Z"/>
  <path class="st0" d="M155,11.2c0,1.1.8,1.7,1.7,1.7s1.7-.8,1.7-1.6-.6-1.8-1.7-1.8-1.7.6-1.7,1.7ZM158.5,8h1.8v6.5h-1.7v-.8c-.5.7-1.5.9-2.1,1-1.9,0-3.3-1.2-3.3-3.4s1.5-3.4,3.4-3.4c.8,0,1.6.3,1.9.9v-.7Z"/>
  <path class="st0" d="M164.1,6.2v1.8h1.6v1.6h-1.7v2.4c0,.7.4.9.7.9s.6,0,.8-.2l.4,1.6c-.5.2-.9.3-1.4.3-1.4,0-2.5-.6-2.5-2.6v-2.4h-1.2v-1.6h1.2v-1.6l1.9-.2Z"/>
  <path class="st0" d="M167.1,7.9v6.5h1.9v-6.5h-1.9ZM169.1,6.2c0,1.4-2.2,1.4-2.2,0s2.2-1.4,2.2,0Z"/>
  <path class="st0" d="M175.4,11.2c0-.8-.5-1.7-1.6-1.7s-1.6.9-1.6,1.7.5,1.7,1.6,1.7,1.6-.8,1.6-1.7ZM170.2,11.2c0-2,1.4-3.4,3.5-3.4s3.6,1.4,3.6,3.4-1.4,3.4-3.6,3.4-3.5-1.4-3.5-3.4Z"/>
  <path class="st0" d="M183.2,14.4v-3.4c0-1-.4-1.5-1.3-1.5-.9,0-1.5.7-1.5,1.6v3.3h-1.9v-6.5h1.7v.8c.6-.7,1.4-1,2.2-1,1.5,0,2.7.7,2.7,3.2v3.4h-1.9Z"/>
  <path class="st0" d="M190.7,9.8c-.5-.3-.9-.5-1.5-.5s-.9.2-.9.5.3.6,1,.6c1.3,0,2.8.3,2.8,2.1,0,1-.8,2.2-2.8,2.2s-1.9-.2-3-1.1l.8-1.3c.8.7,1.6.8,2.3.8.6,0,1-.2,1-.6,0-.3-.2-.6-1.1-.6-1.2,0-2.7-.6-2.7-2.1s1.4-2.1,2.8-2.1,1.8.2,2.5.8l-.9,1.2Z"/>
  <path class="st0" d="M65.2,28.4v-9.2h2v9.2h-2Z"/>
  <path class="st0" d="M73.7,28.4v-3.4c0-1-.4-1.5-1.3-1.5-.9,0-1.5.7-1.5,1.6v3.3h-1.9v-6.5h1.7v.8c.6-.7,1.4-1,2.2-1,1.5,0,2.7.7,2.7,3.2v3.4h-1.9Z"/>
  <path class="st0" d="M78.6,25.2c0,.9.6,1.7,1.6,1.7s1.7-.4,1.7-1.7-.9-1.7-1.7-1.7-1.6.7-1.6,1.7ZM83.9,19.3v9.2h-1.7v-.8c-.7.8-1.5.9-2.3.9-1.9,0-3.2-1.3-3.2-3.4s1.3-3.4,3.2-3.4,1.5.2,2,.9v-3.5h1.9Z"/>
  <path class="st0" d="M87.3,21.9v3.4c0,1,.4,1.5,1.3,1.5.9,0,1.5-.7,1.5-1.6v-3.3h1.9v6.5h-1.7v-.9c-.6.8-1.4,1-2.2,1-1.5,0-2.7-.7-2.7-3.2v-3.4h1.9Z"/>
  <path class="st0" d="M97.4,23.8c-.5-.3-.9-.5-1.5-.5s-.9.2-.9.5.3.6,1,.6c1.3,0,2.8.3,2.8,2.1,0,1-.8,2.2-2.8,2.2s-1.9-.2-3-1.1l.8-1.3c.8.7,1.6.8,2.3.8.6,0,1-.2,1-.6,0-.3-.2-.6-1.1-.6-1.2,0-2.7-.6-2.7-2.1s1.4-2.1,2.8-2.1,1.8.2,2.5.8l-.9,1.2Z"/>
  <path class="st0" d="M102.2,20.2v1.8h1.6v1.6h-1.7v2.4c0,.7.4.9.7.9s.6,0,.8-.2l.4,1.6c-.5.2-.9.3-1.4.3-1.4,0-2.5-.6-2.5-2.6v-2.4h-1.2v-1.6h1.2v-1.6l1.9-.2Z"/>
  <path class="st0" d="M106.6,22v.7c.6-.6,1.2-.9,1.9-.9s1.1.2,1.6.6l-.8,1.5c-.3-.2-.6-.3-1-.3-.8,0-1.5.5-1.5,1.5v3.4h-1.9v-6.5h1.8Z"/>
  <path class="st0" d="M117.7,21.9l-4,9.4h-2.1l1.3-3.1-2.7-6.3h2.1l1.6,4.1,1.6-4.1h2.1Z"/>
  <path class="st0" d="M69.7,34.8c-1.7,0-3,1.3-3,3s1.2,3,3,3,3-1.3,3-3-1.2-3-3-3ZM69.7,42.6c-2.9,0-5-1.8-5-4.8s2-4.8,5-4.8,5,1.8,5,4.8-2,4.8-5,4.8Z"/>
  <path class="st0" d="M80,42.4v-3.5c0-.9-.3-1.4-1.1-1.4s-1.2.7-1.2,1.4v3.5h-1.9v-6.5h1.7v.7c.5-.7,1.3-.9,1.8-.9s1.5.3,1.9,1.2c.6-.9,1.2-1.2,2.2-1.2s2.6.7,2.6,3.1v3.5h-1.9v-3.5c0-.8-.2-1.4-1-1.4s-1.2.6-1.2,1.4v3.5h-1.9Z"/>
  <path class="st0" d="M89.1,39.2c0,1.2.9,1.7,1.7,1.7s1.6-.7,1.6-1.7-.6-1.7-1.6-1.7-1.7.6-1.7,1.7ZM89.1,33.2v3.5c.6-.7,1.3-.9,2-.9,1.9,0,3.2,1.3,3.2,3.4s-1.3,3.4-3.2,3.4-1.5-.2-2.2-1v.8h-1.8v-9.2h1.9Z"/>
  <path class="st0" d="M97.4,35.9v3.4c0,1,.4,1.5,1.3,1.5.9,0,1.5-.7,1.5-1.6v-3.3h1.9v6.5h-1.7v-.9c-.6.8-1.4,1-2.2,1-1.5,0-2.7-.7-2.7-3.2v-3.4h1.9Z"/>
  <path class="st0" d="M104.9,39.2c0,.9.6,1.7,1.6,1.7s1.7-.4,1.7-1.7-.9-1.7-1.7-1.7-1.6.7-1.6,1.7ZM110.2,33.2v9.2h-1.7v-.8c-.7.8-1.5.9-2.3.9-1.9,0-3.2-1.3-3.2-3.4s1.3-3.4,3.2-3.4,1.5.2,2,.9v-3.5h1.9Z"/>
  <path class="st0" d="M115.9,37.8c-.5-.3-.9-.5-1.5-.5s-.9.2-.9.5.3.6,1,.6c1.3,0,2.8.3,2.8,2.1,0,1-.8,2.2-2.8,2.2s-1.9-.2-3-1.1l.8-1.3c.8.7,1.6.8,2.3.8.6,0,1-.2,1-.6,0-.3-.2-.6-1.1-.6-1.2,0-2.7-.6-2.7-2.1s1.4-2.1,2.8-2.1,1.8.2,2.5.8l-.9,1.2Z"/>
  <path class="st0" d="M122.5,42.4v-3.5c0-.9-.3-1.4-1.1-1.4s-1.2.7-1.2,1.4v3.5h-1.9v-6.5h1.7v.7c.5-.7,1.3-.9,1.8-.9s1.5.3,1.9,1.2c.6-.9,1.2-1.2,2.2-1.2s2.6.7,2.6,3.1v3.5h-1.9v-3.5c0-.8-.2-1.4-1-1.4s-1.2.6-1.2,1.4v3.5h-1.9Z"/>
  <path class="st0" d="M131.5,39.2c0,1.1.8,1.7,1.7,1.7s1.7-.8,1.7-1.6-.6-1.8-1.7-1.8-1.7.6-1.7,1.7ZM135,35.9h1.8v6.5h-1.7v-.8c-.5.7-1.5.9-2.1,1-1.9,0-3.3-1.2-3.3-3.4s1.5-3.4,3.4-3.4c.8,0,1.6.3,1.9.9v-.7Z"/>
  <path class="st0" d="M143,42.4v-3.4c0-1-.4-1.5-1.3-1.5-.9,0-1.5.7-1.5,1.6v3.3h-1.9v-6.5h1.7v.8c.6-.7,1.4-1,2.2-1,1.5,0,2.7.7,2.7,3.2v3.4h-1.9Z"/>
  <path class="st0" d="M10.9,24c0-.7-.6-1.3-1.3-1.3s-1.3.6-1.3,1.3.6,1.3,1.3,1.3,1.3-.6,1.3-1.3Z"/>
  <path class="st0" d="M1,25c.6.3,1.3.1,1.6-.4.3-.6.1-1.3-.4-1.6-.6-.3-1.3-.1-1.6.4-.3.6-.1,1.3.4,1.6Z"/>
  <path class="st0" d="M11.3,9.4c0-.6-.5-1.2-1.2-1.2s-1.2.5-1.2,1.2.5,1.2,1.2,1.2,1.2-.5,1.2-1.2Z"/>
  <path class="st0" d="M15.9,2.1c0-.6-.5-1.2-1.2-1.2s-1.2.5-1.2,1.2.5,1.2,1.2,1.2,1.2-.5,1.2-1.2Z"/>
  <path class="st0" d="M15.9,45.9c0-.6-.5-1.2-1.2-1.2s-1.2.5-1.2,1.2.5,1.2,1.2,1.2,1.2-.5,1.2-1.2Z"/>
  <path class="st0" d="M11.3,38.6c0-.6-.5-1.2-1.2-1.2s-1.2.5-1.2,1.2.5,1.2,1.2,1.2,1.2-.5,1.2-1.2Z"/>
  <path class="st0" d="M5.1,32.3c.6.3,1.3.1,1.6-.4.3-.6.1-1.3-.4-1.6-.6-.3-1.3-.1-1.6.4-.3.6-.1,1.3.4,1.6Z"/>
  <path class="st0" d="M5.1,17.8c.6.3,1.3.1,1.6-.4.3-.6.1-1.3-.4-1.6-.6-.3-1.3-.1-1.6.4-.3.6-.1,1.3.4,1.6Z"/>
  <path class="st0" d="M55.8,23.7l-3.4-1.6c-1.4-.7-3,.4-3,1.9s1.6,2.6,3,1.9l3.4-1.6c.3-.1.3-.6,0-.7Z"/>
  <path class="st0" d="M51.4,16.4l-3.4-1.6c-1.4-.7-3,.4-3,1.9s1.6,2.6,3,1.9l3.4-1.6c.3-.1.3-.6,0-.7Z"/>
  <path class="st0" d="M47.3,9.1l-3.4-1.6c-1.4-.7-3,.4-3,1.9s1.6,2.6,3,1.9l3.4-1.6c.3-.1.3-.6,0-.7Z"/>
  <path class="st0" d="M51.7,30.9l-3.4-1.6c-1.4-.7-3,.4-3,1.9s1.6,2.6,3,1.9l3.4-1.6c.3-.1.3-.6,0-.7Z"/>
  <path class="st0" d="M47.3,38.2l-3.4-1.6c-1.4-.7-3,.4-3,1.9s1.6,2.6,3,1.9l3.4-1.6c.3-.1.3-.6,0-.7Z"/>
  <path class="st0" d="M45.8,24.7c.6-.3.6-.9,0-1.2l-2.2-1.2c-1.3-.7-3,.3-3,1.8s1.6,2.5,3,1.8l2.2-1.2Z"/>
  <path class="st0" d="M41.4,17.4c.6-.3.6-.9,0-1.2l-2.2-1.2c-1.3-.7-3,.3-3,1.8s1.6,2.5,3,1.8l2.2-1.2Z"/>
  <path class="st0" d="M37.3,10c.6-.3.6-.9,0-1.2l-2.2-1.2c-1.3-.7-3,.3-3,1.8s1.6,2.5,3,1.8l2.2-1.2Z"/>
  <path class="st0" d="M42.4,1.8l-3.4-1.6c-1.4-.7-3,.4-3,1.9s1.6,2.6,3,1.9l3.4-1.6c.3-.1.3-.6,0-.7Z"/>
  <path class="st0" d="M32.5,2.8c.6-.3.6-.9,0-1.2l-2.2-1.2c-1.3-.7-3,.3-3,1.8s1.6,2.5,3,1.8l2.2-1.2Z"/>
  <path class="st0" d="M41.6,31.9c.6-.3.6-.9,0-1.2l-2.2-1.2c-1.3-.7-3,.3-3,1.8s1.6,2.5,3,1.8l2.2-1.2Z"/>
  <path class="st0" d="M37.3,39.2c.6-.3.6-.9,0-1.2l-2.2-1.2c-1.3-.7-3,.3-3,1.8s1.6,2.5,3,1.8l2.2-1.2Z"/>
  <path class="st0" d="M42.4,45.5l-3.4-1.6c-1.4-.7-3,.4-3,1.9s1.6,2.6,3,1.9l3.4-1.6c.3-.1.3-.6,0-.7Z"/>
  <path class="st0" d="M32.5,46.5c.6-.3.6-.9,0-1.2l-2.2-1.2c-1.3-.7-3,.3-3,1.8s1.6,2.5,3,1.8l2.2-1.2Z"/>
  <path class="st0" d="M19.4,24c0-.7-.6-1.3-1.3-1.3s-1.3.6-1.3,1.3.6,1.3,1.3,1.3,1.3-.6,1.3-1.3Z"/>
  <path class="st0" d="M15.1,31.3c0-.7-.6-1.3-1.3-1.3s-1.3.6-1.3,1.3.6,1.3,1.3,1.3,1.3-.6,1.3-1.3Z"/>
  <path class="st0" d="M15.1,16.8c0-.7-.6-1.3-1.3-1.3s-1.3.6-1.3,1.3.6,1.3,1.3,1.3,1.3-.6,1.3-1.3Z"/>
  <path class="st0" d="M23.4,45l-1.1-.6c-1.1-.6-2.5.2-2.5,1.5s1.4,2.1,2.5,1.5l1.1-.6c.7-.4.7-1.4,0-1.7Z"/>
  <path class="st0" d="M27.7,37.7l-1.1-.6c-1.1-.6-2.5.2-2.5,1.5s1.4,2.1,2.5,1.5l1.1-.6c.7-.4.7-1.4,0-1.7Z"/>
  <path class="st0" d="M31.9,30.4l-1.1-.6c-1.1-.6-2.5.2-2.5,1.5s1.4,2.1,2.5,1.5l1.1-.6c.7-.4.7-1.4,0-1.7Z"/>
  <path class="st0" d="M36.2,23.2l-1.1-.6c-1.1-.6-2.5.2-2.5,1.5s1.4,2.1,2.5,1.5l1.1-.6c.7-.4.7-1.4,0-1.7Z"/>
  <path class="st0" d="M31.8,15.9l-1.1-.6c-1.1-.6-2.5.2-2.5,1.5s1.4,2.1,2.5,1.5l1.1-.6c.7-.4.7-1.4,0-1.7Z"/>
  <path class="st0" d="M27.7,8.6l-1.1-.6c-1.1-.6-2.5.2-2.5,1.5s1.4,2.1,2.5,1.5l1.1-.6c.7-.4.7-1.4,0-1.7Z"/>
  <path class="st0" d="M18.8,10.3c.8-.5.8-1.3,0-1.7l-.4-.3c-.9-.5-1.9.1-1.9,1.1s1.1,1.6,1.9,1.1l.4-.3Z"/>
  <path class="st0" d="M22.8,17.6c.8-.5.8-1.3,0-1.7l-.4-.3c-.9-.5-1.9.1-1.9,1.1s1.1,1.6,1.9,1.1l.4-.3Z"/>
  <path class="st0" d="M27.3,25c.9-.5.9-1.4,0-1.9l-.5-.3c-1-.6-2.2.1-2.2,1.2s1.2,1.8,2.2,1.2l.5-.3Z"/>
  <path class="st0" d="M22.9,32.2c.8-.5.8-1.3,0-1.7l-.4-.3c-.9-.5-1.9.1-1.9,1.1s1.1,1.6,1.9,1.1l.4-.3Z"/>
  <path class="st0" d="M19,39.5c.8-.5.8-1.3,0-1.7l-.4-.3c-.9-.5-1.9.1-1.9,1.1s1.1,1.6,1.9,1.1l.4-.3Z"/>
  <path class="st0" d="M23.5,1.3l-1.1-.6c-1.1-.6-2.5.2-2.5,1.5s1.4,2.1,2.5,1.5l1.1-.6c.7-.4.7-1.4,0-1.7Z"/>
</svg>