<svg width="197" height="48" viewBox="0 0 197 48" fill="none" xmlns="http://www.w3.org/2000/svg">
    <style>
        path {
            fill: #FF6B00;
        }
    </style>

<path d="M70.3063 28.4698H76.9277L73.6611 16.8649L73.61 16.906L70.8118 26.5693L70.3063 28.4698ZM90.7853 42.1539H80.7509L80.6456 41.8039L80.4931 41.2362L79.0649 35.9778H68.0989L66.4611 41.2593L66.2926 41.8109L66.1873 42.1539H56.1599L56.3585 41.5291L56.6594 40.5663L67.7308 5.44244L67.8983 4.89885L68.0126 4.56187H79.1101L79.2134 4.89885L79.3859 5.44946L90.2938 40.5703L90.5947 41.5301L90.7853 42.1539Z" fill="#999999"/>
<path d="M101.961 20.9772H106.319C110.597 20.9772 111.202 19.2361 111.202 16.7077C111.202 14.2194 110.597 12.5064 106.319 12.5064H101.961V20.9772ZM101.961 42.1392H92.5527V4.59928H106.366C110.554 4.59928 113.855 5.52298 116.168 7.35434C118.666 9.32812 119.992 12.692 119.992 16.7077C119.992 20.8077 118.596 24.4514 116.168 26.371C113.855 28.1994 110.554 29.1281 106.366 29.1281H101.961V42.1392Z" fill="#999999"/>
<path d="M31.6524 20.1857C32.7556 20.1807 33.7215 19.6852 34.4105 18.9731C35.1025 18.259 35.5618 17.2872 35.5618 16.201C35.5177 14.0537 33.8097 12.3176 31.6273 12.2715C29.4901 12.2815 27.6507 13.9655 27.6266 16.201C27.6547 18.4235 29.462 20.1676 31.6524 20.1857Z" fill="#999999"/>
<path d="M31.6275 28.0218C29.4903 28.0339 27.6509 29.7158 27.6268 31.9533C27.6539 34.1768 29.4622 35.9179 31.6526 35.939C32.7558 35.934 33.7207 35.4385 34.4097 34.7265C35.1017 34.0084 35.562 33.0385 35.562 31.9533C35.5179 29.806 33.8099 28.071 31.6275 28.0218Z" fill="#999999"/>
<path d="M19.7579 20.1857C20.8611 20.1807 21.8259 19.6852 22.5159 18.9731C23.2069 18.259 23.6663 17.2872 23.6663 16.201C23.6232 14.0537 21.9132 12.3176 19.7328 12.2715C17.5955 12.2815 15.7551 13.9655 15.7311 16.201C15.7591 18.4235 17.5664 20.1676 19.7579 20.1857Z" fill="#999999"/>
<path d="M19.733 28.0218C17.5957 28.0339 15.7554 29.7158 15.7303 31.9533C15.7594 34.1768 17.5667 35.9179 19.7581 35.939C20.8613 35.934 21.8261 35.4385 22.5151 34.7265C23.2072 34.0084 23.6665 33.0385 23.6665 31.9533C23.6234 29.806 21.9134 28.071 19.733 28.0218Z" fill="#999999"/>
<path d="M21.3478 2.08811C13.2611 4.52926 11.3104 11.3663 9.02368 18.5172C6.58153 26.1736 4.95778 32.9785 9.7488 38.3824L8.37378 39.613C1.15465 32.3748 -0.456069 24.4556 2.11044 16.4211C5.25264 6.57826 12.0726 1.69797 20.8994 0L21.3478 2.08811Z" fill="#999999"/>
<path d="M42.2689 8.46351C48.4881 14.9214 51.213 22.8255 48.0708 32.6694C45.5013 40.7029 39.589 46.2381 29.4965 48.0002L29.0863 46.205C36.1339 44.5431 38.7676 38.0591 41.2108 30.4047C43.4974 23.2548 45.8734 16.5522 40.6973 9.90573L42.2689 8.46351Z" fill="#999999"/>
<path d="M123.481 42.1806V5.22444H128.856L141.076 23.9222C143.905 28.2538 146.111 32.1462 147.921 35.9303L148.034 35.8752C147.582 30.9407 147.468 26.4446 147.468 20.6867V5.22444H152.108V42.1806H147.129L135.023 23.4287C132.363 19.3167 129.818 15.0943 127.894 11.0916L127.725 11.1468C128.007 15.8074 128.12 20.2484 128.12 26.3894V42.1806H123.481Z" fill="#999999"/>
<path d="M163.732 42.1806H158.811V5.22451H163.732V42.1806Z" fill="#999999"/>
<path d="M195.611 37.1829C193.023 38.1678 190.786 38.58 187.959 38.58C179.291 38.58 173.643 32.4851 173.643 23.202C173.643 14.7583 179.234 8.71857 187.064 8.71857C190.252 8.71857 192.729 9.38552 195.208 10.914L196.469 6.77488C195.74 6.35465 195.089 6.07283 194.166 5.7549C191.986 4.91544 189.637 4.52429 187.232 4.52429C176.663 4.52429 168.665 12.6882 168.665 23.4818C168.665 34.834 176.551 42.8304 187.679 42.8304C189.413 42.8304 190.923 42.6629 192.768 42.2156C194.273 41.8506 195.146 41.5597 196.63 40.9188L195.611 37.1829Z" fill="#999999"/>
</svg>
