<svg width="191" height="48" viewBox="0 0 191 48" fill="none" xmlns="http://www.w3.org/2000/svg">
    <style>
        path {
        fill: #FF6B00;
        }
    </style>

<path d="M0.79187 48V0H48.7914V48L48.4205 47.9867C32.6424 47.9857 16.8634 47.9857 1.08335 47.9867C0.986826 47.9867 0.889348 47.9962 0.792346 48H0.79187ZM37.2462 32.3484C32.2154 37.8342 23.9674 37.4867 19.2898 32.8405C14.6756 28.2567 14.3332 20.8836 18.5785 16.0163C21.0939 13.131 24.3035 11.6655 28.1361 11.6964C31.9563 11.7273 35.1031 13.2907 37.6128 16.1604C34.6314 11.1415 28.1979 7.71216 21.2033 9.39116C14.6699 10.9594 10.008 16.654 9.70563 23.2511C9.36612 30.6328 14.3056 36.7725 20.937 38.4942C27.4632 40.1899 33.9277 37.3792 37.2495 32.3484H37.2462ZM37.5577 18.2165C34.1921 14.7872 29.0196 14.8005 25.7747 17.7186C22.3273 20.8198 21.9232 25.7546 24.819 29.3684C26.2108 31.1054 28.0538 32.1292 30.2559 32.4116C33.0623 32.773 35.4816 31.8967 37.5581 29.8805C37.5581 30.1088 37.5677 30.2723 37.5572 30.4354C37.5334 30.8244 37.7208 31.0869 38.0565 31.2371C38.2512 31.3227 38.4582 31.377 38.6699 31.3979C39.4592 31.4706 39.9347 31.0279 39.9347 30.2443L39.9385 17.8185C39.9395 17.4428 39.7873 17.1623 39.4549 17.0377C39.172 16.9321 38.851 16.8551 38.5534 16.877C37.8511 16.9302 37.5548 17.2945 37.5577 17.9906V18.2208V18.2165ZM27.4613 12.5009C24.0739 12.47 19.4468 14.5057 17.2751 19.2269C15.2257 23.6795 16.1972 29.0441 19.9608 32.5153C21.1709 33.6313 22.5584 34.4572 24.119 34.9784C25.6796 35.4995 28.389 35.7734 28.9035 35.481C22.9018 35.5352 17.7739 30.8815 17.3365 24.786C16.9038 18.7452 21.2194 13.3121 27.4613 12.5009Z" fill="#979797"/>
<path fill-rule="evenodd" clip-rule="evenodd" d="M37.5567 23.97L37.5615 28.5824C37.5624 28.7574 37.5092 28.8558 37.3665 28.9485C36.5391 29.4882 35.6999 29.9994 34.7108 30.191C32.1422 30.6879 29.9872 29.9642 28.3172 27.941C27.2112 26.601 26.7933 25.0176 26.9953 23.3081C27.3282 20.4399 29.4527 18.3924 31.9677 17.8694C33.9296 17.4604 35.7004 17.992 37.3755 18.9854C37.5296 19.0805 37.5619 19.1946 37.5658 19.3586L37.561 23.97H37.5567ZM34.1902 30.0061C30.7685 30.0441 28.2778 27.4307 28.0029 24.5283C27.7414 21.7642 29.5226 18.7224 32.8473 18.0363C30.8683 18.275 29.2844 19.1927 28.2635 20.9202C27.0253 23.0181 27.0282 25.1826 28.3358 27.2396C29.6829 29.3594 31.7066 30.2101 34.1902 30.0061Z" fill="#979797"/>
<path d="M62.9656 3.96188L61.5876 5.27522C60.6509 4.28475 59.5962 3.78927 58.4246 3.78927C57.4355 3.78927 56.6034 4.12212 55.9254 4.80352C55.2473 5.48491 54.9097 6.31276 54.9097 7.30371C54.9097 7.99414 55.0595 8.60658 55.3595 9.142C55.6559 9.67409 56.0971 10.1112 56.6319 10.4026C57.1802 10.7083 57.7893 10.8605 58.4598 10.8605C59.0318 10.8605 59.5534 10.7535 60.0275 10.54C60.5016 10.3265 61.0261 9.93799 61.5872 9.37499L62.9186 10.7682C62.1539 11.5148 61.4312 12.0316 60.7512 12.3207C60.0713 12.6098 59.2952 12.7487 58.4227 12.7487C56.8136 12.7487 55.4969 12.2385 54.476 11.2176C53.4551 10.1967 52.9387 8.88998 52.9387 7.29467C52.9387 6.26283 53.1765 5.34512 53.6391 4.54389C54.1018 3.74267 54.7746 3.09694 55.6443 2.6086C56.5017 2.1242 57.4707 1.87196 58.4555 1.87681C59.309 1.87681 60.1307 2.0575 60.9214 2.41745C61.7122 2.77741 62.3927 3.29142 62.9647 3.95617L62.9656 3.96188ZM69.8347 1.88299C71.2993 1.88299 72.5579 2.41317 73.6116 3.47306C74.6654 4.53296 75.1922 5.82537 75.1922 7.34983C75.1922 8.86002 74.672 10.1386 73.6326 11.1843C72.5931 12.2299 71.3311 12.7534 69.8485 12.7534C68.2946 12.7534 67.005 12.2161 65.9756 11.1367C64.9461 10.0573 64.434 8.7868 64.434 7.30894C64.434 6.31894 64.6736 5.40931 65.1472 4.57956C65.6176 3.75732 66.2994 3.07596 67.122 2.60623C67.9429 2.12528 68.878 1.87369 69.8295 1.87776L69.8347 1.88299ZM69.8133 3.81115C68.8552 3.81115 68.0506 4.144 67.3978 4.8097C66.7449 5.4754 66.4183 6.3218 66.4183 7.34983C66.4183 8.49436 66.8291 9.39449 67.6512 10.0659C68.2675 10.5788 69.0463 10.8555 69.848 10.8467C70.7824 10.8467 71.5789 10.5138 72.2351 9.83385C72.8913 9.15388 73.2208 8.32556 73.2208 7.33604C73.2208 6.35175 72.8898 5.51725 72.2222 4.8349C71.9136 4.50491 71.5392 4.24328 71.1232 4.06686C70.7073 3.89045 70.2589 3.80318 69.8072 3.81067L69.8133 3.81115ZM78.3129 2.14214H80.2325L82.6319 9.3612L85.057 2.14214H86.9756L88.7112 12.4924H86.8063L85.6965 5.95613L83.4978 12.4924H81.7622L79.5835 5.95613L78.4423 12.4924H76.5212L78.3139 2.14214H78.3129ZM93.46 2.14214L95.8594 9.3612L98.2845 2.14214H100.203L101.938 12.4924H100.029L98.9193 5.95613L96.7201 12.4924H94.9845L92.8048 5.95613L91.6636 12.4924H89.7426L91.5352 2.14214H93.46ZM103.692 2.14214H105.669V8.8353C105.669 9.41161 105.719 9.81959 105.821 10.0583C105.922 10.297 106.088 10.4886 106.32 10.6313C106.552 10.7739 106.832 10.8452 107.162 10.8452C107.509 10.8452 107.808 10.7658 108.059 10.6065C108.309 10.4472 108.484 10.2442 108.58 9.9979C108.676 9.75159 108.724 9.28227 108.724 8.58851V2.14261H110.701V8.31367C110.701 9.35978 110.643 10.073 110.525 10.481C110.408 10.889 110.184 11.2737 109.854 11.6488C109.523 12.024 109.142 12.3022 108.71 12.4829C108.279 12.6636 107.777 12.7539 107.205 12.7539C106.454 12.7539 105.801 12.5813 105.246 12.2366C104.69 11.8918 104.291 11.4596 104.052 10.9365C103.812 10.4135 103.693 9.54237 103.693 8.30892V2.14261L103.692 2.14214ZM113.253 2.14214H115.142L119.571 8.95322V2.14261H121.541V12.4929H119.647L115.223 5.70364V12.4929H113.248V2.14261L113.253 2.14214ZM124.024 2.14214H125.981V12.4924H124.024V2.14214ZM137.968 3.96141L136.591 5.27474C135.653 4.28427 134.594 3.7888 133.427 3.7888C132.438 3.7888 131.606 4.12165 130.928 4.80304C130.25 5.48444 129.913 6.31229 129.913 7.30323C129.913 7.99366 130.062 8.60611 130.362 9.14152C130.659 9.67362 131.1 10.1107 131.635 10.4021C132.183 10.7078 132.793 10.86 133.463 10.86C134.034 10.86 134.556 10.753 135.03 10.5395C135.504 10.326 136.029 9.93751 136.591 9.37452L137.922 10.7677C137.161 11.5143 136.434 12.0311 135.754 12.3203C135.074 12.6094 134.298 12.7482 133.426 12.7482C131.816 12.7482 130.5 12.238 129.479 11.2171C128.459 10.1962 127.942 8.88951 127.942 7.2942C127.942 6.26236 128.179 5.34464 128.642 4.54342C129.105 3.7422 129.777 3.09647 130.647 2.60813C131.504 2.12381 132.473 1.87157 133.458 1.87633C134.312 1.87633 135.133 2.05702 135.924 2.41698C136.715 2.77693 137.395 3.29095 137.967 3.9557L137.968 3.96141ZM143.11 2.14261H145.108L149.088 12.4929H147.04L146.23 10.3612H142.007L141.165 12.4929H139.118L143.11 2.14261ZM144.121 4.88626L142.732 8.4392H145.501L144.121 4.88626ZM149.851 2.14261H155.571V4.08932H153.685V12.4971H151.687V4.08932H149.852V2.14261H149.851ZM157.04 2.14261H158.997V12.4929H157.04V2.14261ZM166.358 1.88299C167.823 1.88299 169.082 2.41317 170.135 3.47306C171.188 4.53296 171.716 5.82537 171.716 7.34983C171.716 8.86002 171.196 10.1386 170.156 11.1843C169.116 12.2299 167.856 12.7534 166.372 12.7534C164.818 12.7534 163.529 12.2161 162.5 11.1367C161.471 10.0573 160.958 8.7868 160.958 7.30894C160.958 6.31894 161.197 5.40931 161.671 4.57956C162.142 3.7574 162.824 3.07608 163.646 2.60623C164.485 2.12121 165.387 1.87776 166.354 1.87776L166.358 1.88299ZM166.337 3.81115C165.379 3.81115 164.574 4.144 163.921 4.8097C163.268 5.4754 162.942 6.3218 162.942 7.34983C162.942 8.49436 163.353 9.39449 164.175 10.0659C164.813 10.5866 165.546 10.8467 166.372 10.8467C166.818 10.8535 167.261 10.767 167.672 10.5925C168.083 10.4181 168.454 10.1597 168.759 9.83385C169.416 9.15864 169.745 8.32556 169.745 7.33604C169.745 6.35175 169.414 5.51725 168.746 4.8349C168.437 4.50509 168.063 4.24358 167.647 4.06718C167.231 3.89078 166.783 3.80341 166.331 3.81067L166.337 3.81115ZM173.84 2.14214H175.73L180.159 8.95322V2.14261H182.129V12.4929H180.234L175.811 5.70364V12.4929H173.84V2.14214ZM190.183 3.54962L188.724 4.83728C188.212 4.12403 187.69 3.7674 187.155 3.7674C186.897 3.7674 186.68 3.83682 186.521 3.97519C186.362 4.11357 186.274 4.27001 186.274 4.44309C186.274 4.61617 186.332 4.77594 186.45 4.93571C186.609 5.14255 187.092 5.58524 187.895 6.26521L189.262 7.45397C189.662 7.85719 189.945 8.2433 190.111 8.61134C190.278 8.97937 190.362 9.38165 190.362 9.81816C190.362 10.6669 190.068 11.3683 189.48 11.9218C188.893 12.4753 188.128 12.7525 187.184 12.7525C186.447 12.7525 185.805 12.5718 185.258 12.2104C184.711 11.849 184.242 11.2818 183.853 10.5081L185.508 9.50956C186.006 10.4244 186.579 10.8819 187.227 10.8819C187.56 10.8819 187.845 10.783 188.08 10.5861C188.314 10.3892 188.425 10.1615 188.425 9.90327C188.425 9.66885 188.338 9.43443 188.165 9.19953C187.991 8.96463 187.607 8.60611 187.015 8.123C185.889 7.20338 185.16 6.49393 184.831 5.99465C184.501 5.49537 184.337 4.9961 184.337 4.4992C184.337 3.78594 184.611 3.16589 185.158 2.65235C185.705 2.13881 186.38 1.88204 187.184 1.88204C187.7 1.88204 188.192 2.00091 188.66 2.24104C189.128 2.48117 189.633 2.91625 190.178 3.54962H190.183ZM56.6158 15.4177H58.6138L62.5947 25.7674H60.5468L59.737 23.6358H55.5136L54.6662 25.7722H52.6182L56.6101 15.4224L56.6158 15.4177ZM57.6272 18.1613L56.2387 21.7143H59.0071L57.6272 18.1613ZM66.3464 15.4177V23.8892H69.2166V25.7674H64.3665V15.4177H66.3464ZM70.9759 15.4177H72.9464V23.8892H75.8165V25.7674H70.9759V15.4177ZM77.4332 15.4177H79.3895V25.7722H77.4332V15.4177ZM85.0223 15.4177H87.0203L91.0003 25.7674H88.9528L88.1425 23.6358H83.92L83.0784 25.7674H81.0304L85.0223 15.4177ZM86.0336 18.1613L84.6452 21.7143H87.414L86.0341 18.1613H86.0336ZM94.6759 15.4177L99.1038 22.2283V15.4177H101.075V25.7722H99.1794L94.751 18.9782V25.7722H92.781V15.4177H94.6759ZM113.21 17.2369L111.832 18.5503C110.896 17.5598 109.835 17.0643 108.669 17.0643C107.68 17.0643 106.848 17.3972 106.17 18.0786C105.492 18.76 105.155 19.5878 105.155 20.5788C105.155 21.2682 105.304 21.8816 105.604 22.4166C105.9 22.9487 106.341 23.3858 106.876 23.6771C107.425 23.9824 108.034 24.135 108.704 24.135C109.276 24.135 109.798 24.0281 110.272 23.8146C110.746 23.6011 111.27 23.2121 111.832 22.6496L113.164 24.0428C112.399 24.7893 111.677 25.3062 110.997 25.5953C110.317 25.8844 109.54 26.0233 108.668 26.0233C107.059 26.0233 105.742 25.513 104.721 24.4921C103.701 23.4712 103.184 22.1646 103.184 20.5693C103.184 19.5374 103.421 18.6197 103.884 17.8185C104.347 17.0173 105.025 16.3715 105.889 15.8832C106.753 15.3948 107.696 15.1509 108.7 15.1509C109.55 15.1514 110.39 15.3359 111.162 15.6916C111.953 16.0515 112.633 16.5665 113.205 17.2308L113.21 17.2369ZM115.2 15.4177H120.85V17.3458H117.155V19.2174H120.85V21.1099H117.155V23.8326H120.85V25.7679H115.2V15.4177ZM127.236 15.4177H129.207V23.8892H132.077V25.7674H127.237V15.4177H127.236ZM132.815 15.4177H138.535V17.3596H136.649V25.7722H134.652V17.3558H132.816V15.4134L132.815 15.4177ZM140.153 15.4177H142.491C143.995 15.4177 145.114 15.6041 145.845 15.9769C146.575 16.3497 147.178 16.9564 147.652 17.7957C148.125 18.6349 148.361 19.6154 148.361 20.7371C148.361 21.5345 148.228 22.2673 147.964 22.9358C147.701 23.6044 147.334 24.1588 146.867 24.6001C146.401 25.0413 145.896 25.3457 145.352 25.5149C144.809 25.6842 143.867 25.7679 142.527 25.7679H140.158V15.4177H140.153ZM142.109 17.3178V23.8464H143.023C143.924 23.8464 144.577 23.7437 144.983 23.5373C145.388 23.331 145.721 22.9829 145.979 22.4946C146.237 22.0062 146.365 21.4009 146.365 20.6915C146.365 19.5978 146.058 18.7405 145.444 18.1352C144.89 17.5902 144.002 17.3183 142.777 17.3183H142.109V17.3178ZM56.3766 29.5405L58.7755 36.7587L61.1968 29.5405H63.1154L64.851 39.8903H62.9461L61.8363 33.3541L59.6371 39.8903H57.9015L55.7223 33.3541L54.5811 39.8903H52.6601L54.4527 29.5405H56.3766ZM66.6869 29.5405H72.3368V31.4682H68.6422V33.3403H72.3368V35.2328H68.6422V37.9555H72.3368V39.8908H66.6869V29.5405ZM77.3557 29.5405L79.7546 36.7587L82.1764 29.5405H84.0941L85.8306 39.8903H83.9248L82.815 33.3541L80.6167 39.8903H78.8811L76.7015 33.3541L75.5602 39.8903H73.6392L75.4319 29.5405H77.3557ZM87.6589 39.8946V29.5405H89.2866C90.2299 29.5405 90.9209 29.6014 91.3574 29.7236C91.9769 29.8877 92.47 30.1929 92.8314 30.6385C93.1928 31.084 93.3806 31.6095 93.3806 32.2143C93.3806 32.609 93.2974 32.9656 93.1315 33.2875C92.9655 33.6094 92.694 33.9057 92.3231 34.191C92.9508 34.4867 93.4111 34.8557 93.7021 35.2989C93.9931 35.742 94.1386 36.266 94.1386 36.8714C94.1443 37.4337 93.9878 37.9858 93.6878 38.4614C93.3868 38.9398 93.0002 39.2983 92.5257 39.5346C92.0511 39.771 91.3964 39.8898 90.5604 39.8898H87.6589V39.8946ZM89.6289 31.4231V33.6042H90.0597C90.5352 33.6042 90.8966 33.5034 91.1296 33.3018C91.3626 33.1002 91.4791 32.8263 91.4791 32.4782C91.4791 32.1549 91.3688 31.8981 91.1472 31.7079C90.9256 31.5177 90.5894 31.4226 90.1372 31.4226H89.6294L89.6289 31.4231ZM89.6289 35.3635V38.0159H90.122C90.9413 38.0159 91.4929 37.9127 91.7768 37.7068C92.0606 37.5009 92.2038 37.2009 92.2038 36.8067C92.2038 36.3607 92.0359 36.0088 91.7021 35.7511C91.3683 35.4934 90.8129 35.364 90.0378 35.364L89.6289 35.3635ZM96.2836 29.5453H101.933V31.473H98.2388V33.345H101.933V35.2375H98.2388V37.9603H101.933V39.8955H96.2836V29.5405V29.5453ZM104.163 29.5453H106.255C107.398 29.5453 108.212 29.6471 108.697 29.8515C109.181 30.056 109.571 30.3945 109.867 30.8681C110.163 31.3417 110.31 31.9028 110.31 32.5495C110.31 33.2295 110.147 33.7987 109.822 34.2613C109.496 34.724 109.004 35.064 108.348 35.2993L110.799 39.9008H108.645L106.317 35.5167H106.137V39.9008H104.166V29.5405L104.163 29.5453ZM106.133 33.5909H106.75C107.377 33.5909 107.808 33.5086 108.045 33.3436C108.281 33.1786 108.398 32.9061 108.398 32.5243C108.403 32.3145 108.342 32.1084 108.223 31.9352C108.108 31.7692 107.943 31.6434 107.753 31.5752C107.555 31.5025 107.196 31.4659 106.673 31.4659H106.133V33.5909ZM52.2982 43.3677H52.7347L53.7476 45.7642L54.8008 43.3677H54.8769L55.9372 45.7642L56.9681 43.3677H57.4103L55.9767 46.6691H55.8973L54.8417 44.3058L53.787 46.6691H53.7076L52.2982 43.3677Z" fill="#979797"/>
<path d="M57.456 43.3677H57.8935L58.9063 45.7642L59.959 43.3677H60.0351L61.0955 45.7642L62.1273 43.3677H62.5686L61.1349 46.6691H61.0555L59.9999 44.3058L58.9443 46.6691H58.8654L57.456 43.3677ZM62.6138 43.3677H63.0512L64.064 45.7642L65.1168 43.3677H65.1943L66.2547 45.7642L67.2865 43.3677H67.7287L66.2941 46.6691H66.2152L65.1596 44.3058L64.1049 46.6691H64.0255L62.6157 43.3677H62.6138ZM68.685 46.001C68.7341 46.0003 68.7828 46.0097 68.8282 46.0285C68.8736 46.0473 68.9146 46.0751 68.9489 46.1104C69.0216 46.1836 69.0582 46.272 69.0582 46.3776C69.0589 46.4269 69.0497 46.4759 69.0309 46.5216C69.0122 46.5673 68.9845 46.6087 68.9493 46.6434C68.8771 46.7166 68.7877 46.7537 68.6854 46.7537C68.6362 46.7543 68.5873 46.7448 68.5419 46.7259C68.4964 46.7069 68.4553 46.6788 68.4211 46.6434C68.3488 46.5692 68.3117 46.4808 68.3117 46.3771C68.3108 46.3275 68.32 46.2783 68.3387 46.2323C68.3574 46.1864 68.3853 46.1447 68.4206 46.1099C68.4549 46.0746 68.496 46.0467 68.5415 46.0279C68.587 46.0091 68.6358 46.0003 68.685 46.001ZM73.1357 44.0533L72.799 44.2626C72.508 43.876 72.1114 43.6824 71.6079 43.6824C71.2056 43.6824 70.8723 43.8108 70.6065 44.07C70.4781 44.1906 70.3763 44.3368 70.3077 44.4991C70.2391 44.6614 70.2051 44.8362 70.208 45.0124C70.2077 45.2511 70.271 45.4855 70.3915 45.6914C70.5098 45.8998 70.6841 46.071 70.8946 46.1855C71.1086 46.3029 71.3464 46.3614 71.6112 46.3614C72.0962 46.3614 72.4928 46.1684 72.8 45.7813L73.1366 46.0029C72.9785 46.241 72.759 46.4321 72.5013 46.5559C72.2351 46.6867 71.9322 46.7523 71.5922 46.7523C71.0701 46.7523 70.6374 46.5859 70.2941 46.2549C70.128 46.1006 69.9962 45.913 69.9073 45.7045C69.8185 45.4959 69.7744 45.271 69.7781 45.0443C69.7781 44.7257 69.859 44.428 70.0192 44.1537C70.1769 43.8827 70.4065 43.6607 70.6825 43.5122C70.9678 43.3586 71.2779 43.2821 71.6259 43.2821C71.8407 43.2815 72.0542 43.3152 72.2584 43.3819C72.4619 43.4485 72.6388 43.5355 72.7814 43.6435C72.9241 43.7514 73.0429 43.8879 73.1414 44.0533H73.1357ZM75.5132 43.283C76.022 43.283 76.4428 43.4666 76.7771 43.8346C77.0766 44.1586 77.2399 44.5855 77.2331 45.0267C77.2373 45.4774 77.0641 45.9118 76.7509 46.2359C76.4299 46.5811 76.0172 46.7532 75.5127 46.7532C75.0082 46.7532 74.5917 46.5811 74.2707 46.2359C73.9497 45.8907 73.789 45.4879 73.789 45.0267C73.7824 44.5864 73.9457 44.1605 74.245 43.8375C74.4028 43.6576 74.5981 43.5147 74.8173 43.4188C75.0365 43.3229 75.274 43.2769 75.5132 43.283ZM75.5113 43.6986C75.3407 43.6969 75.1715 43.7307 75.0148 43.798C74.858 43.8653 74.7169 43.9646 74.6007 44.0895C74.3463 44.35 74.2203 44.6663 74.2203 45.0405C74.2189 45.2743 74.2788 45.5045 74.3938 45.7081C74.5021 45.908 74.6644 46.0734 74.8622 46.1855C75.0595 46.2967 75.2759 46.3538 75.5108 46.3538C75.738 46.3559 75.9618 46.2978 76.1594 46.1855C76.3558 46.0737 76.5122 45.9144 76.6277 45.7081C76.7433 45.5017 76.8013 45.2792 76.8013 45.0405C76.8043 44.8651 76.772 44.6909 76.7064 44.5283C76.6407 44.3656 76.543 44.2178 76.419 44.0938C76.1656 43.8337 75.8627 43.7029 75.5155 43.7029L75.5113 43.6986ZM78.01 43.3677H78.4351V43.9383C78.5778 43.7276 78.7347 43.574 78.8902 43.477C79.094 43.3512 79.3287 43.2842 79.5682 43.2835C79.728 43.2835 79.8792 43.3149 80.0233 43.3772C80.1674 43.4395 80.2848 43.5236 80.3752 43.6268C80.4655 43.73 80.5454 43.8807 80.612 44.0747C80.7532 43.8156 80.9306 43.6182 81.1417 43.4851C81.3528 43.352 81.5815 43.2835 81.8264 43.2835C82.0404 43.2793 82.2508 43.3394 82.4303 43.4561C82.6066 43.5731 82.7424 43.7416 82.8193 43.9387C82.9039 44.1456 82.9467 44.4542 82.9467 44.8674V46.6743H82.5126V44.8674C82.5126 44.5131 82.4874 44.2702 82.4365 44.1375C82.3856 44.0048 82.3 43.8983 82.1778 43.8175C82.0475 43.7344 81.8953 43.6922 81.7408 43.6962C81.5354 43.6962 81.3476 43.7566 81.1764 43.8779C81.0052 43.9991 80.8816 44.1617 80.8031 44.3629C80.7247 44.564 80.6857 44.9031 80.6857 45.3767V46.6691H80.2606V44.9825C80.2606 44.584 80.2354 44.3134 80.1864 44.1703C80.1391 44.0311 80.048 43.911 79.9268 43.8279C79.8031 43.7424 79.6572 43.6996 79.4865 43.6996C79.2906 43.6996 79.107 43.7585 78.9363 43.8774C78.7652 43.9953 78.6331 44.1615 78.5569 44.3548C78.4751 44.5545 78.4342 44.8617 78.4342 45.2739V46.6729H78.0091V43.3729L78.01 43.3677ZM83.8316 43.3677H84.2567V43.9383C84.4051 43.7276 84.5563 43.574 84.7132 43.477C84.9166 43.3511 85.151 43.2841 85.3903 43.2835C85.5471 43.2829 85.7024 43.3148 85.8463 43.3772C85.9899 43.439 86.1078 43.5236 86.1982 43.6268C86.2885 43.73 86.3679 43.8807 86.435 44.0747C86.5762 43.8156 86.7526 43.6182 86.9642 43.4851C87.1684 43.3536 87.4061 43.2836 87.6489 43.2835C87.863 43.2793 88.0733 43.3394 88.2528 43.4561C88.4291 43.5731 88.5649 43.7416 88.6418 43.9387C88.7264 44.1446 88.7687 44.4542 88.7687 44.8674V46.6743H88.3351V44.8674C88.3351 44.5131 88.3103 44.2702 88.2599 44.1375C88.2103 44.0059 88.1196 43.8937 88.0013 43.8175C87.8786 43.7367 87.734 43.6962 87.5638 43.6962C87.3611 43.6951 87.1634 43.7587 86.9994 43.8779C86.8292 43.9996 86.7046 44.1617 86.6261 44.3629C86.5477 44.564 86.5072 44.9031 86.5072 45.3767V46.6691H86.0826V44.9825C86.0826 44.584 86.0579 44.3134 86.0084 44.1703C85.9616 44.031 85.8706 43.9108 85.7493 43.8279C85.6257 43.7424 85.4783 43.6996 85.309 43.6996C85.1126 43.6996 84.9286 43.7585 84.7584 43.8774C84.5879 43.9959 84.4559 44.1619 84.3789 44.3548C84.2966 44.5545 84.2553 44.8617 84.2553 45.2739V46.6729H83.8302V43.3729L83.8316 43.3677ZM91.3174 43.729L91.0445 44.0115C90.8162 43.7913 90.5951 43.6805 90.3788 43.6805C90.2473 43.678 90.12 43.727 90.0241 43.817C89.9256 43.9121 89.8814 44.0143 89.8814 44.1356C89.8814 44.2431 89.9223 44.3448 90.0031 44.4423C90.084 44.5398 90.2551 44.6577 90.5143 44.7913C90.8305 44.9554 91.045 45.1132 91.1581 45.2644C91.2694 45.418 91.326 45.5911 91.326 45.7875C91.3285 45.9158 91.3044 46.0433 91.2551 46.1618C91.2058 46.2803 91.1325 46.3873 91.0397 46.476C90.8495 46.6643 90.6118 46.7585 90.3265 46.7585C90.1363 46.7585 89.9542 46.7171 89.7811 46.6339C89.608 46.5507 89.4644 46.4365 89.3512 46.2915L89.6185 45.9881C89.8358 46.233 90.0654 46.3552 90.3089 46.3552C90.4786 46.3552 90.6241 46.3006 90.7435 46.1912C90.8628 46.0818 90.9232 45.9534 90.9232 45.8108C90.9241 45.6916 90.8819 45.5761 90.8044 45.4855C90.725 45.3928 90.5476 45.2754 90.2694 45.1337C89.9718 44.9801 89.7687 44.8284 89.6608 44.6781C89.5534 44.529 89.4969 44.3493 89.4996 44.1656C89.4996 43.9145 89.5852 43.7062 89.7563 43.5403C89.9275 43.3743 90.1434 43.2921 90.4054 43.2921C90.7088 43.293 91.0141 43.4414 91.3231 43.739L91.3174 43.729ZM95.3516 43.3677V46.6691H94.9331V46.1018C94.7548 46.3186 94.5551 46.4808 94.334 46.5901C94.1129 46.6995 93.8699 46.7542 93.6074 46.7542C93.14 46.7542 92.7411 46.5849 92.4101 46.2454C92.0792 45.9059 91.9142 45.4941 91.9142 45.0091C91.9104 44.7824 91.9529 44.5574 92.039 44.3477C92.1251 44.138 92.253 43.9481 92.4149 43.7894C92.5699 43.6266 92.757 43.4977 92.9642 43.4106C93.1715 43.3235 93.3945 43.2803 93.6193 43.2835C93.8904 43.2835 94.1357 43.3406 94.3554 43.4561C94.5751 43.5717 94.7677 43.7443 94.9331 43.9792V43.3724H95.3516V43.3677ZM93.654 43.6929C93.4177 43.6929 93.1995 43.75 92.9993 43.8669C92.7991 43.9839 92.6398 44.1465 92.5219 44.3567C92.4039 44.5669 92.345 44.7847 92.345 45.0234C92.3451 45.2576 92.4067 45.4876 92.5238 45.6905C92.6364 45.8958 92.8023 46.067 93.004 46.186C93.1993 46.3031 93.423 46.3644 93.6507 46.3633C93.8825 46.3634 94.1104 46.3029 94.3117 46.1879C94.5194 46.0709 94.6792 45.9121 94.7872 45.7124C94.8951 45.5126 94.9555 45.2873 94.9555 45.0362C94.9555 44.6544 94.8295 44.3353 94.5779 44.0785C94.3264 43.8218 94.0168 43.6981 93.6493 43.6981L93.654 43.6929ZM96.2389 42.0933H96.6635V46.6691H96.2389V42.0933ZM97.4752 42.0933H97.8998V46.6691H97.4752V42.0933ZM98.9245 42.0087C98.9712 42.0068 99.0177 42.0146 99.0612 42.0316C99.1047 42.0487 99.1442 42.0745 99.1772 42.1076C99.2102 42.1407 99.2359 42.1802 99.2528 42.2238C99.2697 42.2673 99.2774 42.3139 99.2754 42.3605C99.2754 42.4556 99.2412 42.5374 99.1722 42.6064C99.1402 42.6396 99.1017 42.6659 99.0591 42.6837C99.0164 42.7014 98.9707 42.7102 98.9245 42.7096C98.8294 42.7096 98.7486 42.6749 98.6796 42.6064C98.6107 42.5379 98.5764 42.4556 98.5764 42.3605C98.5757 42.3142 98.5844 42.2683 98.6022 42.2255C98.6199 42.1827 98.6463 42.144 98.6796 42.1119C98.7112 42.0788 98.7492 42.0525 98.7913 42.0348C98.8335 42.017 98.8788 42.0081 98.9245 42.0087ZM98.7134 43.3677H99.139V46.6691H98.7134V43.3677ZM103.304 43.3677V46.6691H102.885V46.1018C102.707 46.3186 102.507 46.4808 102.286 46.5901C102.06 46.7006 101.811 46.7568 101.56 46.7542C101.336 46.7574 101.114 46.7139 100.908 46.6263C100.701 46.5386 100.516 46.4089 100.363 46.2454C100.032 45.9059 99.8665 45.4941 99.8665 45.0091C99.8628 44.7824 99.9053 44.5574 99.9915 44.3477C100.078 44.138 100.206 43.948 100.368 43.7894C100.702 43.4518 101.102 43.2835 101.572 43.2835C101.827 43.2796 102.08 43.3389 102.308 43.4561C102.526 43.5712 102.72 43.7443 102.886 43.9792V43.3724H103.304L103.304 43.3677ZM101.606 43.6929C101.375 43.691 101.148 43.7517 100.949 43.8685C100.749 43.9854 100.585 44.1541 100.474 44.3567C100.356 44.5669 100.297 44.7847 100.297 45.0234C100.297 45.2575 100.359 45.4874 100.476 45.6905C100.588 45.8958 100.754 46.067 100.956 46.186C101.151 46.3027 101.375 46.364 101.603 46.3633C101.835 46.3633 102.056 46.3048 102.269 46.1874C102.47 46.0769 102.637 45.9119 102.749 45.7114C102.861 45.5117 102.917 45.2863 102.917 45.0352C102.917 44.6534 102.791 44.3344 102.539 44.0776C102.288 43.8208 101.978 43.6972 101.611 43.6972L101.606 43.6929ZM104.253 43.3677H104.679V43.9592C104.848 43.7328 105.037 43.5636 105.243 43.4504C105.45 43.3383 105.682 43.2805 105.917 43.2825C106.164 43.2825 106.383 43.3444 106.573 43.4704C106.762 43.593 106.909 43.7696 106.997 43.9773C107.092 44.1893 107.133 44.5203 107.133 44.9692V46.6686H106.708V45.0937C106.708 44.7133 106.693 44.4594 106.661 44.332C106.611 44.1133 106.517 43.9492 106.378 43.8389C106.238 43.7286 106.056 43.6734 105.832 43.6734C105.578 43.6724 105.333 43.7629 105.141 43.9283C104.943 44.09 104.802 44.3112 104.738 44.5593C104.699 44.7233 104.678 45.0224 104.678 45.4627V46.6733H104.253V43.3724L104.253 43.3677ZM111.241 44.0533L110.905 44.2626C110.614 43.876 110.217 43.6824 109.713 43.6824C109.311 43.6824 108.978 43.8108 108.712 44.07C108.583 44.1906 108.482 44.3368 108.413 44.4991C108.344 44.6614 108.31 44.8362 108.313 45.0124C108.313 45.2511 108.376 45.4855 108.497 45.6914C108.615 45.8997 108.79 46.0708 109 46.1855C109.214 46.3025 109.452 46.3614 109.717 46.3614C110.202 46.3614 110.598 46.1684 110.906 45.7813L111.242 46.0029C111.084 46.2406 110.873 46.4251 110.607 46.5559C110.34 46.6867 110.038 46.7523 109.697 46.7523C109.176 46.7523 108.743 46.5859 108.399 46.2549C108.233 46.1006 108.102 45.913 108.013 45.7045C107.924 45.4959 107.88 45.271 107.883 45.0443C107.882 44.7309 107.966 44.423 108.126 44.1537C108.284 43.8829 108.513 43.6608 108.789 43.5117C109.069 43.3577 109.385 43.2816 109.732 43.2816C109.951 43.2816 110.161 43.3149 110.365 43.3767C110.568 43.4385 110.745 43.5303 110.881 43.6382C111.027 43.7504 111.149 43.8896 111.241 44.0481L111.241 44.0533ZM114.831 45.5735L115.189 45.7618C115.071 45.9924 114.937 46.1788 114.782 46.3205C114.627 46.4622 114.455 46.5692 114.263 46.6439C114.054 46.7202 113.832 46.7576 113.609 46.7542C113.071 46.7542 112.65 46.5782 112.346 46.2249C112.043 45.8717 111.891 45.4727 111.891 45.0276C111.887 44.6212 112.023 44.2259 112.277 43.9083C112.603 43.4918 113.039 43.284 113.586 43.284C114.149 43.284 114.598 43.497 114.934 43.924C115.173 44.2255 115.295 44.6016 115.298 45.0524H112.328C112.336 45.4361 112.459 45.7504 112.696 45.9953C112.808 46.1146 112.945 46.209 113.096 46.2724C113.247 46.3357 113.41 46.3665 113.574 46.3628C113.741 46.3629 113.907 46.3331 114.064 46.2749C114.223 46.2169 114.358 46.1389 114.47 46.0371C114.581 45.9354 114.701 45.7842 114.831 45.5683V45.5735ZM114.831 44.6843C114.774 44.4575 114.692 44.2763 114.583 44.1413C114.467 44.0002 114.32 43.888 114.154 43.8137C113.976 43.7305 113.788 43.6891 113.591 43.6891C113.283 43.6834 112.984 43.7951 112.756 44.0015C112.586 44.1537 112.457 44.381 112.37 44.6843H114.831ZM116.55 46.0015C116.6 46.0007 116.648 46.0101 116.694 46.0289C116.739 46.0477 116.78 46.0756 116.815 46.1108C116.888 46.1841 116.924 46.2725 116.924 46.3781C116.925 46.4274 116.916 46.4764 116.897 46.5221C116.878 46.5678 116.85 46.6092 116.815 46.6439C116.743 46.7171 116.655 46.7542 116.551 46.7542C116.447 46.7542 116.361 46.7171 116.287 46.6439C116.252 46.6092 116.224 46.5678 116.205 46.5221C116.187 46.4764 116.177 46.4274 116.178 46.3781C116.178 46.2735 116.214 46.1841 116.287 46.1108C116.361 46.0376 116.448 46.0015 116.551 46.0015H116.55ZM121.001 44.0538L120.668 44.263C120.383 43.8764 119.981 43.6829 119.478 43.6829C119.075 43.6829 118.742 43.8113 118.476 44.0705C118.211 44.3296 118.078 44.6434 118.078 45.0129C118.077 45.2516 118.141 45.486 118.261 45.6919C118.38 45.9003 118.554 46.0716 118.764 46.1864C118.977 46.3044 119.216 46.3624 119.481 46.3624C119.711 46.3672 119.938 46.3171 120.145 46.2163C120.352 46.1155 120.531 45.9668 120.669 45.7827L121.002 46.0043C120.844 46.2421 120.632 46.4266 120.366 46.5573C120.1 46.6881 119.797 46.7537 119.462 46.7537C118.94 46.7537 118.508 46.5873 118.164 46.2563C117.998 46.102 117.867 45.9144 117.778 45.7058C117.689 45.4973 117.645 45.2724 117.649 45.0457C117.649 44.7271 117.729 44.4295 117.89 44.1551C118.048 43.8841 118.277 43.6621 118.553 43.5136C118.839 43.3601 119.149 43.2835 119.497 43.2835C119.711 43.283 119.925 43.3167 120.129 43.3834C120.333 43.4499 120.509 43.5369 120.646 43.6449C120.783 43.7528 120.908 43.8893 121.007 44.0548L121.001 44.0538ZM123.374 43.2835C123.612 43.2777 123.849 43.3241 124.067 43.4194C124.286 43.5147 124.481 43.6565 124.639 43.8351C124.943 44.1703 125.095 44.5683 125.095 45.0272C125.099 45.4779 124.926 45.9122 124.613 46.2364C124.292 46.5816 123.879 46.7537 123.375 46.7537C122.87 46.7537 122.454 46.5816 122.138 46.2364C121.825 45.9122 121.652 45.4779 121.656 45.0272C121.656 44.5707 121.809 44.1736 122.113 43.8384C122.448 43.4675 122.87 43.2835 123.381 43.2835H123.374ZM123.372 43.6991C123.019 43.6991 122.716 43.8294 122.462 44.0899C122.339 44.2141 122.241 44.3618 122.176 44.5243C122.11 44.6869 122.078 44.861 122.081 45.0362C122.08 45.27 122.14 45.5001 122.255 45.7038C122.363 45.9034 122.525 46.0687 122.723 46.1812C122.921 46.2932 123.145 46.3512 123.372 46.3495C123.599 46.3517 123.823 46.2937 124.02 46.1812C124.216 46.069 124.373 45.9102 124.489 45.7038C124.604 45.4974 124.662 45.2749 124.662 45.0362C124.662 44.6663 124.535 44.3505 124.281 44.0852C124.026 43.8199 123.723 43.6943 123.377 43.6943L123.372 43.6991ZM125.871 43.3681H126.295V43.9387C126.444 43.7281 126.595 43.5745 126.752 43.4775C126.966 43.3491 127.193 43.284 127.429 43.284C127.586 43.2835 127.741 43.3154 127.885 43.3776C128.029 43.4395 128.146 43.5241 128.237 43.6273C128.327 43.7305 128.407 43.8812 128.475 44.0752C128.616 43.8161 128.793 43.6187 129.004 43.4856C129.214 43.3524 129.444 43.284 129.689 43.284C129.903 43.2798 130.113 43.3399 130.292 43.4566C130.469 43.5736 130.605 43.7421 130.681 43.9392C130.767 44.1451 130.808 44.4547 130.808 44.8679V46.6748H130.375V44.8679C130.375 44.5136 130.349 44.2706 130.3 44.138C130.25 44.0053 130.163 43.8988 130.04 43.818C129.918 43.7371 129.773 43.6967 129.604 43.6967C129.401 43.6956 129.203 43.7592 129.039 43.8783C128.87 43.9997 128.74 44.1686 128.666 44.3638C128.587 44.5659 128.548 44.904 128.548 45.3776V46.67H128.123V44.9825C128.123 44.584 128.098 44.3134 128.049 44.1703C128 44.0272 127.913 43.9135 127.79 43.8279C127.667 43.7424 127.52 43.6996 127.35 43.6996C127.153 43.6996 126.969 43.7585 126.799 43.8774C126.628 43.9957 126.496 44.1617 126.419 44.3548C126.338 44.5545 126.296 44.8617 126.296 45.2739V46.6729H125.872V43.3729L125.871 43.3681ZM132.163 46.0015C132.212 46.0008 132.261 46.0102 132.306 46.029C132.352 46.0478 132.393 46.0756 132.427 46.1108C132.5 46.1841 132.536 46.2725 132.536 46.3781C132.537 46.4274 132.528 46.4764 132.509 46.5221C132.49 46.5678 132.463 46.6092 132.427 46.6439C132.355 46.7171 132.267 46.7542 132.163 46.7542C132.114 46.7548 132.065 46.7453 132.02 46.7263C131.974 46.7074 131.933 46.6793 131.899 46.6439C131.864 46.6092 131.836 46.5678 131.818 46.5221C131.799 46.4764 131.79 46.4274 131.79 46.3781C131.79 46.2735 131.826 46.1841 131.9 46.1108C131.934 46.0756 131.975 46.0477 132.021 46.0289C132.066 46.0101 132.115 46.0007 132.164 46.0015H132.163ZM136.695 43.3681V46.6695H136.276V46.1023C136.098 46.3191 135.899 46.4812 135.677 46.5906C135.455 46.7 135.212 46.7547 134.949 46.7547C134.726 46.7578 134.503 46.7142 134.297 46.6266C134.091 46.5391 133.905 46.4096 133.752 46.2463C133.591 46.0842 133.463 45.8911 133.378 45.6787C133.293 45.4663 133.252 45.2389 133.256 45.01C133.253 44.7834 133.295 44.5585 133.381 44.3488C133.467 44.1392 133.595 43.9492 133.757 43.7904C133.912 43.6276 134.099 43.4986 134.306 43.4116C134.514 43.3245 134.737 43.2812 134.961 43.2844C135.232 43.2844 135.478 43.3415 135.697 43.4571C135.916 43.5726 136.109 43.7452 136.275 43.9801V43.3734H136.694L136.695 43.3681ZM134.997 43.6934C134.767 43.6915 134.541 43.7516 134.342 43.8674C134.142 43.9845 133.977 44.1538 133.865 44.3572C133.746 44.5674 133.688 44.7851 133.688 45.0238C133.688 45.2579 133.75 45.4879 133.866 45.691C133.986 45.903 134.146 46.068 134.347 46.1864C134.543 46.3032 134.766 46.3646 134.994 46.3638C135.226 46.3639 135.454 46.3035 135.655 46.1883C135.856 46.0789 136.021 45.9138 136.131 45.7128C136.243 45.5051 136.3 45.2726 136.299 45.0367C136.299 44.6548 136.173 44.3358 135.922 44.079C135.671 43.8222 135.361 43.6986 134.992 43.6986L134.997 43.6934ZM137.594 43.3681H138.019V44.9088C138.019 45.2854 138.039 45.544 138.08 45.6857C138.136 45.8813 138.259 46.0508 138.428 46.1646C138.599 46.282 138.802 46.3405 139.04 46.3405C139.277 46.3405 139.478 46.2834 139.644 46.1693C139.809 46.0552 139.923 45.9049 139.986 45.719C140.028 45.5906 140.049 45.3215 140.049 44.9088V43.3681H140.483V44.9886C140.483 45.4437 140.436 45.7865 140.324 46.0172C140.223 46.2421 140.055 46.431 139.844 46.5588C139.631 46.69 139.369 46.7547 139.042 46.7547C138.715 46.7547 138.452 46.69 138.236 46.5588C138.02 46.4275 137.856 46.2463 137.754 46.0129C137.652 45.7794 137.595 45.428 137.595 44.9587V43.3681H137.594Z" fill="#979797"/>
</svg>
