<svg width="159" height="48" viewBox="0 0 159 48" fill="none" xmlns="http://www.w3.org/2000/svg">
    <style>
        path {
        fill: #FF6B00;
        }
    </style>

<path fill-rule="evenodd" clip-rule="evenodd" d="M28.0503 22.7958L40.0367 10.8095V5.81908C36.9065 3.12167 33.1243 1.27121 29.0519 0.461163C24.3964 -0.464881 19.5708 0.0103995 15.1853 1.8269C10.7999 3.6434 7.05163 6.71954 4.41448 10.6663C1.77733 14.6131 0.369751 19.2533 0.369751 24C0.369751 28.7467 1.77733 33.3869 4.41448 37.3337C7.05163 41.2805 10.7999 44.3566 15.1853 46.1731C19.5708 47.9896 24.3964 48.4649 29.0519 47.5388C33.1243 46.7288 36.9065 44.8783 40.0367 42.1809V37.1906L28.0503 25.2042C27.3853 24.5391 27.3853 23.4609 28.0503 22.7958ZM16.4887 4.97351C20.2518 3.41479 24.3926 3.00696 28.3874 3.80158C31.8393 4.48819 35.0482 6.04591 37.7148 8.31474L35.9744 10.0551C33.6557 8.12545 30.8848 6.79861 27.909 6.20669C24.3899 5.50668 20.7421 5.86595 17.4271 7.23907C14.1121 8.61219 11.2788 10.9375 9.2853 13.9209C7.29184 16.9043 6.22784 20.4119 6.22784 24C6.22784 27.5881 7.29184 31.0957 9.2853 34.0791C11.2788 37.0625 14.1121 39.3878 17.4271 40.7609C20.7421 42.1341 24.3899 42.4933 27.909 41.7933C30.8848 41.2014 33.6557 39.8745 35.9744 37.9449L37.7148 39.6853C35.0482 41.9541 31.8393 43.5118 28.3875 44.1984C24.3926 44.993 20.2518 44.5852 16.4887 43.0265C12.7256 41.4678 9.50926 38.8282 7.24635 35.4415C4.98344 32.0548 3.77561 28.0731 3.77561 24C3.77561 19.9269 4.98344 15.9452 7.24635 12.5585C9.50926 9.17183 12.7256 6.53223 16.4887 4.97351ZM27.2446 9.54711C24.3861 8.97852 21.4232 9.27034 18.7305 10.3857C16.0378 11.501 13.7364 13.3898 12.1172 15.8131C10.498 18.2364 9.6337 21.0855 9.6337 24C9.6337 26.9145 10.498 29.7636 12.1172 32.1869C13.7364 34.6102 16.0378 36.499 18.7305 37.6143C21.4232 38.7297 24.3861 39.0215 27.2446 38.4529C29.559 37.9925 31.7208 36.9849 33.5537 35.5242L31.5795 33.55C30.1456 34.6325 28.4802 35.3827 26.7042 35.736C24.383 36.1977 21.9771 35.9608 19.7906 35.0551C17.6041 34.1494 15.7353 32.6157 14.4204 30.6479C13.1056 28.6801 12.4038 26.3666 12.4038 24C12.4038 21.6334 13.1056 19.3199 14.4204 17.3521C15.7353 15.3843 17.6041 13.8506 19.7906 12.9449C21.9771 12.0392 24.383 11.8023 26.7042 12.264C28.4802 12.6173 30.1456 13.3675 31.5795 14.45L33.5537 12.4758C31.7208 11.0151 29.559 10.0075 27.2446 9.54711ZM29.1384 16.8912C28.205 16.2651 27.1527 15.8258 26.0397 15.6044C24.3792 15.2741 22.6581 15.4436 21.0939 16.0915C19.5298 16.7394 18.1929 17.8366 17.2523 19.2443C16.3117 20.652 15.8097 22.307 15.8097 24C15.8097 25.693 16.3117 27.348 17.2523 28.7557C18.1929 30.1634 19.5298 31.2606 21.0939 31.9085C22.6581 32.5564 24.3792 32.7259 26.0397 32.3956C27.1527 32.1742 28.205 31.7349 29.1384 31.1088L25.642 27.6125C23.6469 25.6174 23.6469 22.3826 25.642 20.3875L29.1384 16.8912Z" fill="#979797"/>
<path d="M36.4742 22.7958L40.0367 19.2333V14.4167L34.0658 20.3875C32.0707 22.3826 32.0707 25.6174 34.0658 27.6125L40.0367 33.5833V28.7667L36.4742 25.2042C35.8091 24.5391 35.8091 23.4609 36.4742 22.7958Z" fill="#979797"/>
<path d="M59.5677 25.6685C59.5677 27.1083 58.8478 27.8282 57.408 27.8282H53.6285C52.1887 27.8282 51.4688 27.1083 51.4688 25.6685V17.0296C51.4688 15.5898 52.1887 14.8699 53.6285 14.8699H57.408C58.8478 14.8699 59.5677 15.5898 59.5677 17.0296H61.1875C61.1875 14.51 59.9277 13.2501 57.408 13.2501H53.6285C51.1089 13.2501 49.849 14.51 49.849 17.0296V25.6685C49.849 28.1881 51.1089 29.4479 53.6285 29.4479H57.408C59.9277 29.4479 61.1875 28.1881 61.1875 25.6685H59.5677Z" fill="#979797"/>
<path fill-rule="evenodd" clip-rule="evenodd" d="M66.5868 18.1095C64.0671 18.1095 62.8073 19.3693 62.8073 21.889V25.6685C62.8073 28.1881 64.0671 29.4479 66.5868 29.4479H70.3662C72.8859 29.4479 74.1457 28.1881 74.1457 25.6685V21.889C74.1457 19.3693 72.8859 18.1095 70.3662 18.1095H66.5868ZM64.427 21.889C64.427 20.4492 65.1469 19.7293 66.5868 19.7293H70.3662C71.8061 19.7293 72.526 20.4492 72.526 21.889V25.6685C72.526 27.1083 71.8061 27.8282 70.3662 27.8282H66.5868C65.1469 27.8282 64.427 27.1083 64.427 25.6685V21.889Z" fill="#979797"/>
<path d="M80.0849 19.7293H77.3853V29.4479H75.7655V18.1095H80.0849C81.7983 18.1095 83.1013 18.5162 83.994 19.3297C84.2676 18.5162 84.9443 18.1095 86.0241 18.1095H88.1838C91.7834 18.1095 93.5831 19.9092 93.5831 23.5087V29.4479H91.9633V23.5087C91.9633 20.9891 90.7035 19.7293 88.1838 19.7293H86.0241C85.6642 19.7293 85.4842 19.9092 85.4842 20.2692V29.4479H83.8644V23.5087C83.8644 20.9891 82.6046 19.7293 80.0849 19.7293Z" fill="#979797"/>
<path d="M96.8227 19.7293H99.5223C102.042 19.7293 103.302 20.9891 103.302 23.5087V29.4479H104.922V20.2692C104.922 19.9092 105.102 19.7293 105.462 19.7293H107.621C110.141 19.7293 111.401 20.9891 111.401 23.5087V29.4479H113.02V23.5087C113.02 19.9092 111.221 18.1095 107.621 18.1095H105.462C104.382 18.1095 103.705 18.5162 103.431 19.3297C102.539 18.5162 101.236 18.1095 99.5223 18.1095H95.2029V29.4479H96.8227V19.7293Z" fill="#979797"/>
<path d="M122.199 27.8282C123.639 27.8282 124.359 27.1083 124.359 25.6685H125.979C125.979 28.1881 124.719 29.4479 122.199 29.4479H118.42C115.9 29.4479 114.64 28.1881 114.64 25.6685V17.0296C114.64 14.51 115.9 13.2501 118.42 13.2501H122.199C124.719 13.2501 125.979 14.51 125.979 17.0296H124.359C124.359 15.5898 123.639 14.8699 122.199 14.8699H118.42C116.98 14.8699 116.26 15.5898 116.26 17.0296V25.6685C116.26 27.1083 116.98 27.8282 118.42 27.8282H122.199Z" fill="#979797"/>
<path fill-rule="evenodd" clip-rule="evenodd" d="M131.378 18.1095C128.858 18.1095 127.599 19.3693 127.599 21.889V25.6685C127.599 28.1881 128.858 29.4479 131.378 29.4479H135.157C137.677 29.4479 138.937 28.1881 138.937 25.6685V21.889C138.937 19.3693 137.677 18.1095 135.157 18.1095H131.378ZM129.218 21.889C129.218 20.4492 129.938 19.7293 131.378 19.7293H135.157C136.597 19.7293 137.317 20.4492 137.317 21.889V25.6685C137.317 27.1083 136.597 27.8282 135.157 27.8282H131.378C129.938 27.8282 129.218 27.1083 129.218 25.6685V21.889Z" fill="#979797"/>
<path d="M144.876 19.7293H142.177V29.4479H140.557V18.1095H144.876C146.59 18.1095 147.893 18.5162 148.785 19.3297C149.059 18.5162 149.736 18.1095 150.815 18.1095H152.975C156.575 18.1095 158.374 19.9092 158.374 23.5087V29.4479H156.755V23.5087C156.755 20.9891 155.495 19.7293 152.975 19.7293H150.815C150.455 19.7293 150.275 19.9092 150.275 20.2692V29.4479H148.656V23.5087C148.656 20.9891 147.396 19.7293 144.876 19.7293Z" fill="#979797"/>
<path d="M52.0349 36.405C52.0349 36.7303 51.8723 36.8929 51.5471 36.8929H50.6934C50.3682 36.8929 50.2056 36.7303 50.2056 36.405V34.4538C50.2056 34.1286 50.3682 33.966 50.6934 33.966H51.5471C51.8723 33.966 52.0349 34.1286 52.0349 34.4538H52.4008C52.4008 33.8846 52.1162 33.6001 51.5471 33.6001H50.6934C50.1243 33.6001 49.8398 33.8846 49.8398 34.4538V36.405C49.8398 36.9742 50.1243 37.2587 50.6934 37.2587H51.5471C52.1162 37.2587 52.4008 36.9742 52.4008 36.405H52.0349Z" fill="#979797"/>
<path fill-rule="evenodd" clip-rule="evenodd" d="M53.9655 35.5514C53.9655 34.9822 54.2501 34.6977 54.8192 34.6977H55.6729C56.242 34.6977 56.5266 34.9822 56.5266 35.5514V36.405C56.5266 36.9742 56.242 37.2587 55.6729 37.2587H54.8192C54.2501 37.2587 53.9655 36.9742 53.9655 36.405V35.5514ZM54.8192 35.0635C54.494 35.0635 54.3314 35.2262 54.3314 35.5514V36.405C54.3314 36.7303 54.494 36.8929 54.8192 36.8929H55.6729C55.9981 36.8929 56.1607 36.7303 56.1607 36.405V35.5514C56.1607 35.2262 55.9981 35.0635 55.6729 35.0635H54.8192Z" fill="#979797"/>
<path d="M58.4572 35.0635H59.0669C59.6361 35.0635 59.9206 35.3481 59.9206 35.9172V37.2587H60.2865V35.1855C60.2865 35.1042 60.3271 35.0635 60.4085 35.0635H60.8963C61.4654 35.0635 61.75 35.3481 61.75 35.9172V37.2587H62.1158V35.9172C62.1158 35.1042 61.7093 34.6977 60.8963 34.6977H60.4085C60.1645 34.6977 60.0117 34.7896 59.9499 34.9733C59.7483 34.7896 59.4539 34.6977 59.0669 34.6977H58.0913V37.2587H58.4572V35.0635Z" fill="#979797"/>
<path d="M64.6562 35.0635H64.0464V37.2587H63.6805V34.6977H64.6562C65.0432 34.6977 65.3375 34.7896 65.5391 34.9733C65.6009 34.7896 65.7538 34.6977 65.9977 34.6977H66.4855C67.2985 34.6977 67.7051 35.1042 67.7051 35.9172V37.2587H67.3392V35.9172C67.3392 35.3481 67.0546 35.0635 66.4855 35.0635H65.9977C65.9164 35.0635 65.8757 35.1042 65.8757 35.1855V37.2587H65.5099V35.9172C65.5099 35.3481 65.2253 35.0635 64.6562 35.0635Z" fill="#979797"/>
<path d="M69.6356 34.6977H69.2698V36.405C69.2698 36.9742 69.5543 37.2587 70.1235 37.2587H70.9771C71.5463 37.2587 71.8308 36.9742 71.8308 36.405V34.6977H71.465V36.405C71.465 36.7303 71.3024 36.8929 70.9771 36.8929H70.1235C69.7982 36.8929 69.6356 36.7303 69.6356 36.405V34.6977Z" fill="#979797"/>
<path d="M74.7371 35.0635H73.7614V37.2587H73.3956V34.6977H74.7371C75.5501 34.6977 75.9566 35.1042 75.9566 35.9172V37.2587H75.5907V35.9172C75.5907 35.3481 75.3062 35.0635 74.7371 35.0635Z" fill="#979797"/>
<path d="M77.5213 34.6977V37.2587H77.8872V34.6977H77.5213Z" fill="#979797"/>
<path d="M77.7043 34.3928C77.5417 34.3928 77.4604 34.3115 77.4604 34.1489C77.4604 33.9863 77.5417 33.905 77.7043 33.905C77.8669 33.905 77.9482 33.9863 77.9482 34.1489C77.9482 34.3115 77.8669 34.3928 77.7043 34.3928Z" fill="#979797"/>
<path d="M81.6471 36.405C81.6471 36.7303 81.4845 36.8929 81.1593 36.8929H80.3056C79.9804 36.8929 79.8178 36.7303 79.8178 36.405V35.5514C79.8178 35.2262 79.9804 35.0635 80.3056 35.0635H81.1593C81.4845 35.0635 81.6471 35.2262 81.6471 35.5514H82.013C82.013 34.9822 81.7284 34.6977 81.1593 34.6977H80.3056C79.7365 34.6977 79.4519 34.9822 79.4519 35.5514V36.405C79.4519 36.9742 79.7365 37.2587 80.3056 37.2587H81.1593C81.7284 37.2587 82.013 36.9742 82.013 36.405H81.6471Z" fill="#979797"/>
<path fill-rule="evenodd" clip-rule="evenodd" d="M85.2851 35.0635H84.4314C84.1062 35.0635 83.9436 35.2262 83.9436 35.5514H83.5777C83.5777 34.9822 83.8623 34.6977 84.4314 34.6977H85.2851C85.8542 34.6977 86.1388 34.9822 86.1388 35.5514V36.405C86.1388 36.9742 85.8542 37.2587 85.2851 37.2587H84.4314C83.8623 37.2587 83.5777 37.0148 83.5777 36.527C83.5777 36.1725 83.7013 35.9693 83.9484 35.9172L85.7705 35.5026C85.7558 35.2099 85.594 35.0635 85.2851 35.0635ZM85.2851 36.8929C85.6103 36.8929 85.7729 36.7303 85.7729 36.405V35.8806L84.0436 36.2782C83.9769 36.301 83.9436 36.3433 83.9436 36.405C83.9436 36.7303 84.1062 36.8929 84.4314 36.8929H85.2851Z" fill="#979797"/>
<path d="M88.923 36.8929C88.5978 36.8929 88.4352 36.7303 88.4352 36.405V35.0635H89.045V34.6977H88.4352V34.0879H88.0694V34.6977H87.7035V35.0635H88.0694V36.405C88.0694 36.9742 88.3539 37.2587 88.923 37.2587H89.1669V36.8929H88.923Z" fill="#979797"/>
<path d="M90.7317 37.2587V34.6977H91.0975V37.2587H90.7317Z" fill="#979797"/>
<path d="M90.6707 34.1489C90.6707 34.3115 90.752 34.3928 90.9146 34.3928C91.0772 34.3928 91.1585 34.3115 91.1585 34.1489C91.1585 33.9863 91.0772 33.905 90.9146 33.905C90.752 33.905 90.6707 33.9863 90.6707 34.1489Z" fill="#979797"/>
<path fill-rule="evenodd" clip-rule="evenodd" d="M92.6623 35.5514C92.6623 34.9822 92.9468 34.6977 93.516 34.6977H94.3696C94.9388 34.6977 95.2233 34.9822 95.2233 35.5514V36.405C95.2233 36.9742 94.9388 37.2587 94.3696 37.2587H93.516C92.9468 37.2587 92.6623 36.9742 92.6623 36.405V35.5514ZM93.516 35.0635C93.1907 35.0635 93.0281 35.2262 93.0281 35.5514V36.405C93.0281 36.7303 93.1907 36.8929 93.516 36.8929H94.3696C94.6948 36.8929 94.8575 36.7303 94.8575 36.405V35.5514C94.8575 35.2262 94.6948 35.0635 94.3696 35.0635H93.516Z" fill="#979797"/>
<path d="M97.1539 35.0635H98.1295C98.6987 35.0635 98.9832 35.3481 98.9832 35.9172V37.2587H99.3491V35.9172C99.3491 35.1042 98.9426 34.6977 98.1295 34.6977H96.788V37.2587H97.1539V35.0635Z" fill="#979797"/>
<path d="M100.914 37.2587V36.8929H102.743C102.987 36.8929 103.109 36.7709 103.109 36.527C103.109 36.2831 102.987 36.1611 102.743 36.1611H101.646C101.158 36.1611 100.914 35.9172 100.914 35.4294C100.914 34.9416 101.158 34.6977 101.646 34.6977H103.475V35.0635H101.646C101.402 35.0635 101.28 35.1855 101.28 35.4294C101.28 35.6733 101.402 35.7953 101.646 35.7953H102.743C103.231 35.7953 103.475 36.0392 103.475 36.527C103.475 37.0148 103.231 37.2587 102.743 37.2587H100.914Z" fill="#979797"/>
<path d="M109.653 36.405C109.653 36.7303 109.491 36.8929 109.165 36.8929H108.312C107.986 36.8929 107.824 36.7303 107.824 36.405V34.4538C107.824 34.1286 107.986 33.966 108.312 33.966H109.165C109.491 33.966 109.653 34.1286 109.653 34.4538H110.019C110.019 33.8846 109.735 33.6001 109.165 33.6001H108.312C107.743 33.6001 107.458 33.8846 107.458 34.4538V36.405C107.458 36.9742 107.743 37.2587 108.312 37.2587H109.165C109.735 37.2587 110.019 36.9742 110.019 36.405H109.653Z" fill="#979797"/>
<path fill-rule="evenodd" clip-rule="evenodd" d="M111.584 35.5514C111.584 34.9822 111.868 34.6977 112.437 34.6977H113.291C113.86 34.6977 114.145 34.9822 114.145 35.5514V36.405C114.145 36.9742 113.86 37.2587 113.291 37.2587H112.437C111.868 37.2587 111.584 36.9742 111.584 36.405V35.5514ZM111.95 35.5514V36.405C111.95 36.7303 112.112 36.8929 112.437 36.8929H113.291C113.616 36.8929 113.779 36.7303 113.779 36.405V35.5514C113.779 35.2262 113.616 35.0635 113.291 35.0635H112.437C112.112 35.0635 111.95 35.2262 111.95 35.5514Z" fill="#979797"/>
<path d="M116.075 35.0635H116.685C117.254 35.0635 117.539 35.3481 117.539 35.9172V37.2587H117.905V35.1855C117.905 35.1042 117.945 35.0635 118.027 35.0635H118.515C119.084 35.0635 119.368 35.3481 119.368 35.9172V37.2587H119.734V35.9172C119.734 35.1042 119.328 34.6977 118.515 34.6977H118.027C117.783 34.6977 117.63 34.7896 117.568 34.9733C117.367 34.7896 117.072 34.6977 116.685 34.6977H115.71V37.2587H116.075V35.0635Z" fill="#979797"/>
<path fill-rule="evenodd" clip-rule="evenodd" d="M123.006 34.6977C123.575 34.6977 123.86 34.9822 123.86 35.5514V36.405C123.86 36.9742 123.575 37.2587 123.006 37.2587H121.665V38.3563H121.299V35.5514C121.299 34.9822 121.583 34.6977 122.152 34.6977H123.006ZM123.006 35.0635H122.152C121.827 35.0635 121.665 35.2262 121.665 35.5514V36.8929H123.006C123.331 36.8929 123.494 36.7303 123.494 36.405V35.5514C123.494 35.2262 123.331 35.0635 123.006 35.0635Z" fill="#979797"/>
<path d="M125.79 33.6001H125.425V37.2587H125.79V33.6001Z" fill="#979797"/>
<path d="M127.355 37.2587V34.6977H127.721V37.2587H127.355Z" fill="#979797"/>
<path d="M127.294 34.1489C127.294 34.3115 127.376 34.3928 127.538 34.3928C127.701 34.3928 127.782 34.3115 127.782 34.1489C127.782 33.9863 127.701 33.905 127.538 33.905C127.376 33.905 127.294 33.9863 127.294 34.1489Z" fill="#979797"/>
<path fill-rule="evenodd" clip-rule="evenodd" d="M130.993 35.0635H130.139C129.814 35.0635 129.652 35.2262 129.652 35.5514H129.286C129.286 34.9822 129.57 34.6977 130.139 34.6977H130.993C131.562 34.6977 131.847 34.9822 131.847 35.5514V36.405C131.847 36.9742 131.562 37.2587 130.993 37.2587H130.139C129.57 37.2587 129.286 37.0148 129.286 36.527C129.286 36.1725 129.409 35.9693 129.657 35.9172L131.479 35.5026C131.464 35.2099 131.302 35.0635 130.993 35.0635ZM130.993 36.8929C131.318 36.8929 131.481 36.7303 131.481 36.405V35.8806L129.752 36.2782C129.685 36.301 129.652 36.3433 129.652 36.405C129.652 36.7303 129.814 36.8929 130.139 36.8929H130.993Z" fill="#979797"/>
<path d="M133.777 35.0635H134.753C135.322 35.0635 135.607 35.3481 135.607 35.9172V37.2587H135.973V35.9172C135.973 35.1042 135.566 34.6977 134.753 34.6977H133.412V37.2587H133.777V35.0635Z" fill="#979797"/>
<path d="M139.245 36.8929C139.57 36.8929 139.733 36.7303 139.733 36.405H140.098C140.098 36.9742 139.814 37.2587 139.245 37.2587H138.391C137.822 37.2587 137.537 36.9742 137.537 36.405V35.5514C137.537 34.9822 137.822 34.6977 138.391 34.6977H139.245C139.814 34.6977 140.098 34.9822 140.098 35.5514H139.733C139.733 35.2262 139.57 35.0635 139.245 35.0635H138.391C138.066 35.0635 137.903 35.2262 137.903 35.5514V36.405C137.903 36.7303 138.066 36.8929 138.391 36.8929H139.245Z" fill="#979797"/>
<path fill-rule="evenodd" clip-rule="evenodd" d="M143.797 36.405C143.797 36.7303 143.635 36.8929 143.309 36.8929H142.456C142.147 36.8929 141.985 36.7465 141.97 36.4538L143.792 36.0392C144.04 35.9871 144.163 35.7839 144.163 35.4294C144.163 34.9416 143.879 34.6977 143.309 34.6977H142.456C141.887 34.6977 141.602 34.9822 141.602 35.5514V36.405C141.602 36.9742 141.887 37.2587 142.456 37.2587H143.309C143.879 37.2587 144.163 36.9742 144.163 36.405H143.797ZM141.968 36.0758V35.5514C141.968 35.2262 142.131 35.0635 142.456 35.0635H143.309C143.635 35.0635 143.797 35.2262 143.797 35.5514C143.797 35.6132 143.764 35.6554 143.697 35.6782L141.968 36.0758Z" fill="#979797"/>
<path d="M148.027 33.6001H148.393V36.8929H150.588V37.2587H148.027V33.6001Z" fill="#979797"/>
<path d="M153.372 36.8929C153.047 36.8929 152.884 36.7303 152.884 36.405V35.0635H153.494V34.6977H152.884V34.0879H152.518V34.6977H152.153V35.0635H152.518V36.405C152.518 36.9742 152.803 37.2587 153.372 37.2587H153.616V36.8929H153.372Z" fill="#979797"/>
<path fill-rule="evenodd" clip-rule="evenodd" d="M156.034 37.2587C155.465 37.2587 155.181 36.9742 155.181 36.405V35.5514C155.181 34.9822 155.465 34.6977 156.034 34.6977H157.376V33.6001H157.742V36.405C157.742 36.9742 157.457 37.2587 156.888 37.2587H156.034ZM155.547 36.405C155.547 36.7303 155.709 36.8929 156.034 36.8929H156.888C157.213 36.8929 157.376 36.7303 157.376 36.405V35.0635H156.034C155.709 35.0635 155.547 35.2262 155.547 35.5514V36.405Z" fill="#979797"/>
</svg>
