<svg width="192" height="48" viewBox="0 0 192 48" fill="none" xmlns="http://www.w3.org/2000/svg">
    <style>
        path {
        fill: #FF6B00;
        }
    </style>

<path d="M67.2394 7.0724H64.4458V5.24939C67.1214 5.24939 69.3768 5.24939 72.0655 5.24939V7.0724H69.2719V14.4299H67.2394V7.0724Z" fill="#979797"/>
<path d="M76.4198 10.4298C76.3805 9.7216 75.6591 9.39371 74.8722 9.39371C74.1115 9.39371 73.5344 9.78718 73.3508 10.4298H76.4198ZM73.3508 11.807C73.4426 12.4363 74.0463 12.9479 75.1083 12.9479C75.6198 12.9479 76.328 12.8299 76.787 12.4363L77.8494 13.6166C77.1543 14.2987 76.0395 14.5742 75.0689 14.5742C72.7212 14.5742 71.4359 13.1971 71.4359 11.1249C71.4359 9.15755 72.761 7.78042 74.8722 7.78042C77.0756 7.78042 78.5183 9.15755 78.1117 11.807H73.3508Z" fill="#979797"/>
<path d="M81.2726 5.2625V14.4299H79.3975V5.2625H81.2726Z" fill="#979797"/>
<path d="M87.5155 10.4298C87.4762 9.7216 86.7548 9.39371 85.9679 9.39371C85.2072 9.39371 84.6301 9.78718 84.4465 10.4298H87.5155ZM84.4465 11.807C84.5383 12.4363 85.1416 12.9479 86.204 12.9479C86.7155 12.9479 87.4237 12.8299 87.8828 12.4363L88.9451 13.6166C88.25 14.2987 87.1352 14.5742 86.1646 14.5742C83.817 14.5742 82.5316 13.1971 82.5316 11.1249C82.5316 9.15755 83.8567 7.78042 85.9679 7.78042C88.1713 7.78042 89.614 9.15755 89.2074 11.807H84.4465Z" fill="#979797"/>
<path d="M96.1587 13.5776C95.3848 14.338 94.4536 14.5742 93.6274 14.5742C91.7387 14.5742 90.0866 13.5379 90.0866 11.2034C90.0866 9.02657 91.7261 7.80674 93.6143 7.80674C94.5586 7.80674 95.3061 8.01659 95.9619 8.69868L94.9127 9.89224C94.5192 9.59045 94.0864 9.51176 93.6929 9.51176C92.7486 9.51176 91.9879 10.1282 91.9879 11.2034C91.9879 12.2397 92.7748 12.8299 93.6536 12.8299C94.0733 12.8299 94.6504 12.6593 94.9651 12.3446L96.1587 13.5776Z" fill="#979797"/>
<path d="M101.745 11.2034C101.745 10.3904 101.247 9.4986 100.106 9.4986C98.9781 9.4986 98.4801 10.3904 98.4801 11.2034C98.4801 12.0167 98.9654 12.8955 100.106 12.8955C101.261 12.8955 101.745 12.0561 101.745 11.2034ZM96.5652 11.2034C96.5652 9.24944 97.9555 7.80674 100.106 7.80674C102.27 7.80674 103.66 9.24944 103.66 11.2034C103.66 13.1578 102.31 14.5742 100.106 14.5742C97.9161 14.5742 96.5652 13.1578 96.5652 11.2034Z" fill="#979797"/>
<path d="M108.789 14.4299V10.9545C108.789 10.102 108.448 9.53803 107.674 9.53803C106.926 9.53803 106.507 10.2331 106.507 10.9676V14.4299H104.619V7.95101H106.271L106.402 8.68535C106.808 7.97733 107.556 7.80674 108.107 7.80674C108.815 7.80674 109.576 8.06922 109.996 9.01324C110.573 8.13463 111.189 7.79376 112.146 7.79376C113.497 7.79376 114.73 8.47563 114.73 10.8889V14.4299H112.828V10.9281C112.828 10.1151 112.605 9.57733 111.844 9.57733C111.097 9.57733 110.651 10.2201 110.651 10.9545V14.4299H108.789Z" fill="#979797"/>
<path d="M120.146 14.4299V10.9545C120.146 10.102 119.805 9.53803 119.032 9.53803C118.284 9.53803 117.864 10.2331 117.864 10.9676V14.4299H115.976V7.95101H117.628L117.759 8.68535C118.166 7.97733 118.914 7.80674 119.464 7.80674C120.173 7.80674 120.933 8.06922 121.353 9.01324C121.93 8.13463 122.547 7.79376 123.504 7.79376C124.855 7.79376 126.087 8.47563 126.087 10.8889V14.4299H124.186V10.9281C124.186 10.1151 123.963 9.57733 123.202 9.57733C122.455 9.57733 122.008 10.2201 122.008 10.9545V14.4299H120.146Z" fill="#979797"/>
<path d="M129.143 7.95101V11.374C129.143 12.3707 129.577 12.8821 130.481 12.8821C131.36 12.8955 131.95 12.1347 131.95 11.2953V7.95101H133.812V14.4299H132.107L132.042 13.5776C131.465 14.351 130.73 14.5742 129.943 14.5609C128.488 14.5609 127.242 13.9054 127.242 11.3872V7.95101H129.143Z" fill="#979797"/>
<path d="M140.082 14.4299V11.0069C140.082 10.0102 139.649 9.4986 138.744 9.4986C137.866 9.48544 137.275 10.2461 137.275 11.0854V14.4299H135.413V7.95101H137.118L137.184 8.77724C137.761 8.02975 138.495 7.78042 139.282 7.79376C140.738 7.79376 141.984 8.47563 141.984 10.9935V14.4299H140.082Z" fill="#979797"/>
<path d="M143.492 7.9379V14.4299H145.38V7.9379H143.492ZM145.512 6.23305C145.512 7.64944 143.361 7.64944 143.361 6.23305C143.361 4.81645 145.512 4.81645 145.512 6.23305Z" fill="#979797"/>
<path d="M152.673 13.5776C151.899 14.338 150.968 14.5742 150.142 14.5742C148.253 14.5742 146.6 13.5379 146.6 11.2034C146.6 9.02657 148.24 7.80674 150.128 7.80674C151.073 7.80674 151.82 8.01659 152.476 8.69868L151.427 9.89224C151.034 9.59045 150.6 9.51176 150.207 9.51176C149.263 9.51176 148.502 10.1282 148.502 11.2034C148.502 12.2397 149.289 12.8299 150.167 12.8299C150.588 12.8299 151.165 12.6593 151.479 12.3446L152.673 13.5776Z" fill="#979797"/>
<path d="M154.981 11.1904C154.981 12.266 155.742 12.8955 156.686 12.8955C157.748 12.8955 158.404 12.0691 158.404 11.256C158.404 10.3248 157.814 9.47245 156.686 9.47245C155.742 9.47245 154.981 10.1151 154.981 11.1904ZM158.47 7.95101H160.24C160.24 10.102 160.24 12.279 160.24 14.4299H158.535L158.43 13.6166C157.997 14.2987 157.066 14.5609 156.437 14.5742C154.496 14.5872 153.093 13.3282 153.093 11.1904C153.093 9.03955 154.574 7.78042 156.489 7.80674C157.302 7.80674 158.063 8.12164 158.404 8.69868L158.47 7.95101Z" fill="#979797"/>
<path d="M164.149 6.18059V7.99031H165.788V9.56435H164.135V12.0035C164.135 12.6856 164.516 12.8692 164.87 12.8692C165.093 12.8692 165.447 12.8167 165.657 12.7119L166.09 14.2856C165.618 14.4692 165.237 14.5479 164.726 14.5742C163.322 14.6398 162.26 14.0231 162.26 12.0035V9.56435H161.106V7.99031H162.26V6.39031L164.149 6.18059Z" fill="#979797"/>
<path d="M167.073 7.9379V14.4299H168.962V7.9379H167.073ZM169.093 6.23305C169.093 7.64944 166.942 7.64944 166.942 6.23305C166.942 4.81645 169.093 4.81645 169.093 6.23305Z" fill="#979797"/>
<path d="M175.362 11.2034C175.362 10.3904 174.864 9.4986 173.722 9.4986C172.595 9.4986 172.096 10.3904 172.096 11.2034C172.096 12.0167 172.582 12.8955 173.722 12.8955C174.877 12.8955 175.362 12.0561 175.362 11.2034ZM170.182 11.2034C170.182 9.24944 171.572 7.80674 173.722 7.80674C175.887 7.80674 177.277 9.24944 177.277 11.2034C177.277 13.1578 175.926 14.5742 173.722 14.5742C171.532 14.5742 170.182 13.1578 170.182 11.2034Z" fill="#979797"/>
<path d="M183.166 14.4299V11.0069C183.166 10.0102 182.733 9.4986 181.828 9.4986C180.949 9.48544 180.359 10.2461 180.359 11.0854V14.4299H178.497V7.95101H180.202L180.268 8.77724C180.845 8.02975 181.579 7.78042 182.366 7.79376C183.822 7.79376 185.067 8.47563 185.067 10.9935V14.4299H183.166Z" fill="#979797"/>
<path d="M190.655 9.78718C190.169 9.44618 189.71 9.31502 189.12 9.31502C188.504 9.31502 188.189 9.53803 188.189 9.85263C188.189 10.2068 188.517 10.4035 189.146 10.4167C190.419 10.4559 191.953 10.7182 191.966 12.502C191.979 13.5512 191.192 14.6789 189.133 14.6789C188.176 14.6789 187.193 14.4955 186.09 13.5776L186.904 12.2397C187.704 12.8955 188.477 13.0398 189.159 13.0528C189.71 13.0661 190.143 12.8429 190.13 12.502C190.13 12.2004 189.907 11.9511 189.028 11.9248C187.822 11.8725 186.313 11.374 186.313 9.85263C186.313 8.38378 187.704 7.76743 189.107 7.76743C190.104 7.76743 190.904 8.01659 191.586 8.60678L190.655 9.78718Z" fill="#979797"/>
<path d="M65.2458 28.4199V19.2396H67.2787V28.4199H65.2458Z" fill="#979797"/>
<path d="M73.7049 28.4199V24.9973C73.7049 24.0003 73.2725 23.4888 72.3676 23.4888C71.4888 23.4757 70.8986 24.2361 70.8986 25.0758V28.4199H69.0362V21.9412H70.7412L70.8068 22.7673C71.3839 22.0196 72.1179 21.7706 72.9053 21.7838C74.3607 21.7838 75.6067 22.4657 75.6067 24.9839V28.4199H73.7049Z" fill="#979797"/>
<path d="M78.6499 25.1809C78.6499 26.1119 79.227 26.8463 80.2369 26.8463C81.0889 26.8463 81.9808 26.4133 81.9808 25.1809C81.9808 24.0922 81.1025 23.5149 80.2369 23.5149C79.2663 23.5149 78.6499 24.2102 78.6499 25.1809ZM83.9088 19.2526V28.4199H82.2173L82.0993 27.5937C81.4959 28.3675 80.761 28.5378 79.9483 28.5378C78.0466 28.5378 76.7481 27.2003 76.7481 25.1809C76.7481 23.0822 78.0728 21.8101 79.9746 21.8101C80.7348 21.8101 81.4566 22.0459 82.0075 22.728V19.2526H83.9088Z" fill="#979797"/>
<path d="M87.3188 21.9412V25.3643C87.3188 26.3607 87.7516 26.8724 88.657 26.8724C89.5353 26.8855 90.1255 26.1247 90.1255 25.2853V21.9412H91.9879V28.4199H90.2829L90.2173 27.5674C89.6407 28.3414 88.9058 28.5642 88.1193 28.5511C86.663 28.5511 85.4175 27.8953 85.4175 25.3771V21.9412H87.3188Z" fill="#979797"/>
<path d="M97.4046 23.7772C96.9193 23.4364 96.4603 23.3051 95.8706 23.3051C95.2537 23.3051 94.9393 23.5281 94.9393 23.8428C94.9393 24.1968 95.2668 24.3938 95.8963 24.4067C97.1685 24.446 98.7031 24.7085 98.7162 26.4924C98.7293 27.5413 97.9424 28.6693 95.8832 28.6693C94.9258 28.6693 93.9421 28.4857 92.8409 27.5674L93.654 26.2297C94.4536 26.8855 95.2275 27.0298 95.9095 27.0432C96.4603 27.0559 96.8931 26.8331 96.88 26.4924C96.88 26.1905 96.657 25.9411 95.7787 25.9152C94.5717 25.8626 93.0638 25.3643 93.0638 23.8428C93.0638 22.3738 94.4536 21.7575 95.857 21.7575C96.8538 21.7575 97.6538 22.0066 98.3358 22.597L97.4046 23.7772Z" fill="#979797"/>
<path d="M102.152 20.1706V21.9805H103.792V23.5544H102.139V25.9938C102.139 26.6758 102.52 26.8596 102.874 26.8596C103.097 26.8596 103.451 26.807 103.661 26.7019L104.094 28.2756C103.621 28.4592 103.241 28.5378 102.73 28.5642C101.326 28.63 100.264 28.0135 100.264 25.9938V23.5544H99.1096V21.9805H100.264V20.3805L102.152 20.1706Z" fill="#979797"/>
<path d="M106.572 21.9542L106.717 22.6624C107.149 22.0593 107.726 21.797 108.448 21.797C109.064 21.797 109.576 21.9805 110.034 22.3872L109.248 23.8823C108.933 23.6591 108.605 23.5544 108.212 23.5544C107.398 23.5544 106.703 24.0788 106.703 25.0497V28.4199H104.815V21.9542H106.572Z" fill="#979797"/>
<path d="M117.681 21.9412L113.707 31.3316H111.648L112.985 28.2232L110.271 21.9412H112.396L114.008 26.02L115.595 21.9412H117.681Z" fill="#979797"/>
<path d="M69.6784 34.8423C67.9345 34.8423 66.7279 36.1538 66.7279 37.8194C66.7279 39.5379 67.9345 40.7837 69.6784 40.7837C71.4622 40.7837 72.6294 39.5246 72.6294 37.8194C72.6294 36.1407 71.4622 34.8423 69.6784 34.8423ZM69.6784 42.6327C66.741 42.6327 64.7212 40.8097 64.7212 37.8194C64.7212 34.8295 66.741 33.0066 69.6784 33.0066C72.6163 33.0066 74.6361 34.8295 74.6361 37.8194C74.6361 40.8097 72.6163 42.6327 69.6784 42.6327Z" fill="#979797"/>
<path d="M80.0135 42.4098V38.9346C80.0135 38.0821 79.6725 37.518 78.8991 37.518C78.1515 37.518 77.7318 38.213 77.7318 38.9473V42.4098H75.8432V35.9311H77.4957L77.6269 36.6655C78.0335 35.9571 78.781 35.7868 79.3315 35.7868C80.0401 35.7868 80.8004 36.049 81.2201 36.9933C81.7972 36.1147 82.4136 35.7735 83.371 35.7735C84.7219 35.7735 85.9548 36.4557 85.9548 38.8688V42.4098H84.053V38.9081C84.053 38.0952 83.8301 37.5573 83.0694 37.5573C82.3218 37.5573 81.8759 38.1999 81.8759 38.9346V42.4098H80.0135Z" fill="#979797"/>
<path d="M89.1287 39.1702C89.1287 40.4032 90.0206 40.8361 90.8731 40.8361C91.883 40.8361 92.4601 40.1018 92.4601 39.1702C92.4601 38.1999 91.8437 37.5048 90.8731 37.5048C90.0075 37.5048 89.1287 38.0821 89.1287 39.1702ZM89.1025 33.2426V36.7179C89.6534 36.0362 90.3747 35.8 91.1354 35.8C93.0372 35.8 94.3618 37.0717 94.3618 39.1702C94.3618 41.1901 93.0634 42.541 91.1616 42.541C90.3485 42.541 89.614 42.3574 89.0107 41.5838L88.8927 42.4098H87.2008V33.2426H89.1025Z" fill="#979797"/>
<path d="M97.4046 35.9311V39.3541C97.4046 40.3506 97.8374 40.8622 98.7424 40.8622C99.6212 40.8754 100.211 40.1146 100.211 39.2752V35.9311H102.073V42.4098H100.369L100.303 41.5573C99.7256 42.3313 98.9916 42.5541 98.2047 42.541C96.7489 42.541 95.5033 41.8852 95.5033 39.3669V35.9311H97.4046Z" fill="#979797"/>
<path d="M104.946 39.1702C104.946 40.1018 105.523 40.8361 106.533 40.8361C107.386 40.8361 108.277 40.4032 108.277 39.1702C108.277 38.0821 107.398 37.5048 106.533 37.5048C105.562 37.5048 104.946 38.1999 104.946 39.1702ZM110.205 33.2426V42.4098H108.513L108.395 41.5838C107.792 42.3574 107.058 42.5277 106.244 42.5277C104.343 42.5277 103.044 41.1901 103.044 39.1702C103.044 37.0717 104.369 35.8 106.271 35.8C107.031 35.8 107.753 36.0362 108.303 36.7179V33.2426H110.205Z" fill="#979797"/>
<path d="M115.884 37.7673C115.399 37.4263 114.94 37.2951 114.35 37.2951C113.733 37.2951 113.419 37.518 113.419 37.8327C113.419 38.1871 113.747 38.3833 114.376 38.3966C115.648 38.4359 117.183 38.6984 117.195 40.4818C117.209 41.5312 116.422 42.6592 114.363 42.6592C113.406 42.6592 112.422 42.4756 111.32 41.5573L112.133 40.2196C112.933 40.8754 113.707 41.0197 114.389 41.0331C114.94 41.0458 115.372 40.823 115.36 40.4818C115.36 40.1804 115.136 39.931 114.258 39.9051C113.051 39.8525 111.543 39.3541 111.543 37.8327C111.543 36.3641 112.933 35.7474 114.337 35.7474C115.334 35.7474 116.134 35.9969 116.815 36.5869L115.884 37.7673Z" fill="#979797"/>
<path d="M122.494 42.4098V38.9346C122.494 38.0821 122.153 37.518 121.379 37.518C120.632 37.518 120.212 38.213 120.212 38.9473V42.4098H118.323V35.9311H119.976L120.107 36.6655C120.514 35.9571 121.261 35.7868 121.812 35.7868C122.52 35.7868 123.281 36.049 123.701 36.9933C124.278 36.1147 124.894 35.7735 125.851 35.7735C127.202 35.7735 128.435 36.4557 128.435 38.8688V42.4098H126.534V38.9081C126.534 38.0952 126.311 37.5573 125.55 37.5573C124.803 37.5573 124.356 38.1999 124.356 38.9346V42.4098H122.494Z" fill="#979797"/>
<path d="M131.465 39.1702C131.465 40.2458 132.226 40.8754 133.17 40.8754C134.233 40.8754 134.888 40.0494 134.888 39.236C134.888 38.3049 134.298 37.4522 133.17 37.4522C132.226 37.4522 131.465 38.0952 131.465 39.1702ZM134.953 35.9311H136.724C136.724 38.0821 136.724 40.2589 136.724 42.4098H135.019L134.915 41.5964C134.482 42.2789 133.55 42.541 132.921 42.5541C130.98 42.5674 129.577 41.3083 129.577 39.1702C129.577 37.0198 131.059 35.7607 132.973 35.7868C133.787 35.7868 134.547 36.1014 134.888 36.6786L134.953 35.9311Z" fill="#979797"/>
<path d="M142.994 42.4098V38.9866C142.994 37.9902 142.561 37.4787 141.656 37.4787C140.777 37.4654 140.187 38.2263 140.187 39.0657V42.4098H138.325V35.9311H140.03L140.095 36.7572C140.673 36.0097 141.407 35.7607 142.194 35.7735C143.649 35.7735 144.895 36.4557 144.895 38.9738V42.4098H142.994Z" fill="#979797"/>
<path d="M10.9449 24.0469C10.9449 23.3406 10.3725 22.7681 9.66635 22.7681C8.96021 22.7681 8.38794 23.3406 8.38794 24.0469C8.38794 24.7531 8.96021 25.3255 9.66635 25.3255C10.3725 25.3255 10.9449 24.7531 10.9449 24.0469Z" fill="#979797"/>
<path d="M0.955807 25.0468C1.50809 25.3614 2.21083 25.1684 2.52523 24.6165C2.83979 24.0642 2.64716 23.3614 2.09488 23.0467C1.54259 22.7323 0.839849 22.9251 0.525454 23.4772C0.210715 24.0295 0.40352 24.732 0.955807 25.0468Z" fill="#979797"/>
<path d="M11.2679 9.43044C11.2679 8.79482 10.7527 8.2796 10.117 8.2796C9.48156 8.2796 8.96633 8.79482 8.96633 9.43044C8.96633 10.0661 9.48156 10.5813 10.117 10.5813C10.7527 10.5813 11.2679 10.0661 11.2679 9.43044Z" fill="#979797"/>
<path d="M15.8661 2.1331C15.8661 1.49787 15.3511 0.982433 14.7153 0.982433C14.0799 0.982433 13.5645 1.49787 13.5645 2.1331C13.5645 2.76876 14.0799 3.2842 14.7153 3.2842C15.3511 3.2842 15.8661 2.76876 15.8661 2.1331Z" fill="#979797"/>
<path d="M15.8661 45.8668C15.8661 45.2315 15.3511 44.7161 14.7153 44.7161C14.0799 44.7161 13.5645 45.2315 13.5645 45.8668C13.5645 46.5024 14.0799 47.0178 14.7153 47.0178C15.3511 47.0178 15.8661 46.5024 15.8661 45.8668Z" fill="#979797"/>
<path d="M11.2679 38.5921C11.2679 37.9565 10.7527 37.4415 10.117 37.4415C9.48156 37.4415 8.96633 37.9565 8.96633 38.5921C8.96633 39.2279 9.48156 39.7428 10.117 39.7428C10.7527 39.7428 11.2679 39.2279 11.2679 38.5921Z" fill="#979797"/>
<path d="M5.11964 32.3085C5.67194 32.6227 6.37466 32.4302 6.68904 31.8781C7.00382 31.3257 6.81097 30.6229 6.25872 30.3082C5.7066 29.9942 5.00388 30.1866 4.68929 30.7391C4.37472 31.2912 4.56753 31.9939 5.11964 32.3085Z" fill="#979797"/>
<path d="M5.11964 17.7516C5.67194 18.0663 6.37466 17.8735 6.68904 17.3213C7.00382 16.769 6.81097 16.0662 6.25872 15.7519C5.7066 15.4373 5.00388 15.6299 4.68929 16.1822C4.37472 16.7345 4.56753 17.4372 5.11964 17.7516Z" fill="#979797"/>
<path d="M55.7581 23.6874L52.3878 22.1158C50.9753 21.4573 49.3568 22.4882 49.3568 24.0469C49.3568 25.6052 50.9753 26.6362 52.3878 25.9778L55.7581 24.406C56.0632 24.264 56.0632 23.8297 55.7581 23.6874Z" fill="#979797"/>
<path d="M51.4265 16.3923L48.0562 14.8206C46.6437 14.1621 45.0252 15.1933 45.0252 16.7517C45.0252 18.3103 46.6437 19.3414 48.0562 18.6827L51.4265 17.1112C51.732 16.9688 51.732 16.5347 51.4265 16.3923Z" fill="#979797"/>
<path d="M47.2828 9.07116L43.912 7.49966C42.4996 6.84082 40.8813 7.87214 40.8813 9.43044C40.8813 10.989 42.4996 12.0201 43.912 11.3614L47.2828 9.78993C47.588 9.6475 47.588 9.21338 47.2828 9.07116Z" fill="#979797"/>
<path d="M51.6599 30.9491L48.2892 29.3775C46.8767 28.7188 45.2582 29.75 45.2582 31.3086C45.2582 32.8669 46.8767 33.898 48.2892 33.2392L51.6599 31.6677C51.9651 31.5255 51.9651 31.0914 51.6599 30.9491Z" fill="#979797"/>
<path d="M47.3462 38.2327L43.9757 36.6612C42.5633 36.0029 40.9448 37.0338 40.9448 38.5921C40.9448 40.1505 42.5633 41.1814 43.9757 40.5233L47.3462 38.9516C47.6518 38.809 47.6518 38.3753 47.3462 38.2327Z" fill="#979797"/>
<path d="M45.7597 24.6649C46.4002 24.3249 46.4002 23.7684 45.7597 23.4284L43.5795 22.2708C42.2401 21.5597 40.626 22.5306 40.626 24.0469C40.626 25.5629 42.2401 26.5337 43.5795 25.8229L45.7597 24.6649Z" fill="#979797"/>
<path d="M41.3921 17.3701C42.0325 17.0299 42.0325 16.4734 41.3921 16.1334L39.2118 14.9759C37.8726 14.2649 36.2582 15.2355 36.2582 16.7517C36.2582 18.2681 37.8726 19.2387 39.2118 18.5276L41.3921 17.3701Z" fill="#979797"/>
<path d="M37.3421 10.0488C37.9825 9.70884 37.9825 9.15226 37.3421 8.81226L35.162 7.65455C33.8226 6.94347 32.2083 7.91415 32.2083 9.43044C32.2083 10.9468 33.8226 11.9176 35.162 11.2065L37.3421 10.0488Z" fill="#979797"/>
<path d="M42.4237 1.77374L39.0533 0.202057C37.6408 -0.456342 36.0225 0.574539 36.0225 2.1331C36.0225 3.69166 37.6408 4.72289 39.0533 4.06414L42.4237 2.4929C42.7292 2.35038 42.7292 1.91626 42.4237 1.77374Z" fill="#979797"/>
<path d="M32.4996 2.75128C33.1401 2.41158 33.1401 1.85505 32.4996 1.51492L30.3192 0.357258C28.9801 -0.35404 27.3657 0.616945 27.3657 2.1331C27.3657 3.64969 28.9801 4.62006 30.3192 3.90894L32.4996 2.75128Z" fill="#979797"/>
<path d="M41.5943 31.9268C42.2347 31.5866 42.2347 31.0302 41.5943 30.69L39.4138 29.5325C38.0748 28.8212 36.4603 29.7921 36.4603 31.3086C36.4603 32.8247 38.0748 33.7956 39.4138 33.0841L41.5943 31.9268Z" fill="#979797"/>
<path d="M37.3153 39.2103C37.9557 38.8705 37.9557 38.3138 37.3153 37.9739L35.135 36.8161C33.7958 36.1053 32.1813 37.0757 32.1813 38.5921C32.1813 40.1083 33.7958 41.0791 35.135 40.3682L37.3153 39.2103Z" fill="#979797"/>
<path d="M42.4283 45.5073L39.0577 43.9357C37.6452 43.2773 36.0268 44.3082 36.0268 45.8668C36.0268 47.4253 37.6452 48.4566 39.0577 47.7978L42.4283 46.2261C42.7335 46.084 42.7335 45.6499 42.4283 45.5073Z" fill="#979797"/>
<path d="M32.4969 46.4854C33.1373 46.1452 33.1373 45.5883 32.4969 45.2486L30.3165 44.0909C28.9774 43.3798 27.3629 44.3507 27.3629 45.8668C27.3629 47.3833 28.9774 48.3535 30.3165 47.6425L32.4969 46.4854Z" fill="#979797"/>
<path d="M19.3583 24.0469C19.3583 23.3406 18.7859 22.7681 18.0797 22.7681C17.3734 22.7681 16.8011 23.3406 16.8011 24.0469C16.8011 24.7531 17.3734 25.3255 18.0797 25.3255C18.7859 25.3255 19.3583 24.7531 19.3583 24.0469Z" fill="#979797"/>
<path d="M15.1089 31.3086C15.1089 30.6025 14.5365 30.03 13.8302 30.03C13.1242 30.03 12.5518 30.6025 12.5518 31.3086C12.5518 32.0147 13.1242 32.5868 13.8302 32.5868C14.5365 32.5868 15.1089 32.0147 15.1089 31.3086Z" fill="#979797"/>
<path d="M15.1089 16.7517C15.1089 16.0456 14.5365 15.473 13.8302 15.473C13.1242 15.473 12.5518 16.0456 12.5518 16.7517C12.5518 17.4579 13.1242 18.0303 13.8302 18.0303C14.5365 18.0303 15.1089 17.4579 15.1089 16.7517Z" fill="#979797"/>
<path d="M23.3886 45.0046L22.3201 44.4162C21.216 43.8076 19.8644 44.6063 19.8644 45.8668C19.8644 47.1271 21.216 47.9258 22.3201 47.3174L23.3886 46.7294C24.0676 46.3547 24.0676 45.3789 23.3886 45.0046Z" fill="#979797"/>
<path d="M27.719 37.7297L26.6506 37.1414C25.5467 36.5331 24.1948 37.3318 24.1948 38.5921C24.1948 39.8525 25.5467 40.6512 26.6506 40.0429L27.719 39.4542C28.3983 39.0802 28.3983 38.1042 27.719 37.7297Z" fill="#979797"/>
<path d="M31.8548 30.4462L30.7863 29.8575C29.6822 29.2496 28.3305 30.0478 28.3305 31.3086C28.3305 32.5689 29.6822 33.3673 30.7863 32.7593L31.8548 32.1707C32.5338 31.7965 32.5338 30.8207 31.8548 30.4462Z" fill="#979797"/>
<path d="M36.1583 23.1847L35.0898 22.5958C33.9857 21.9877 32.6339 22.7862 32.6339 24.0469C32.6339 25.3072 33.9857 26.1059 35.0898 25.4976L36.1583 24.9088C36.8373 24.5348 36.8373 23.5588 36.1583 23.1847Z" fill="#979797"/>
<path d="M31.7639 15.8895L30.6956 15.3009C29.5917 14.6927 28.2398 15.4912 28.2398 16.7517C28.2398 18.012 29.5917 18.811 30.6956 18.2025L31.7639 17.614C32.4433 17.2398 32.4433 16.2637 31.7639 15.8895Z" fill="#979797"/>
<path d="M27.6753 8.56822L26.6069 7.97973C25.503 7.37161 24.1511 8.17013 24.1511 9.43044C24.1511 10.6909 25.503 11.4895 26.6069 10.8814L27.6753 10.2925C28.3544 9.91833 28.3544 8.94237 27.6753 8.56822Z" fill="#979797"/>
<path d="M18.832 10.2982C19.6586 9.82084 19.6586 9.04008 18.832 8.56294L18.3929 8.30932C17.5298 7.81098 16.451 8.43396 16.451 9.43044C16.451 10.4271 17.5298 11.0499 18.3929 10.5518L18.832 10.2982Z" fill="#979797"/>
<path d="M22.8234 17.6193C23.6499 17.1421 23.6499 16.3613 22.8234 15.8842L22.3839 15.6306C21.5209 15.1321 20.4421 15.7551 20.4421 16.7517C20.4421 17.7484 21.5209 18.3714 22.3839 17.8729L22.8234 17.6193Z" fill="#979797"/>
<path d="M27.345 25.0125C28.2651 24.4815 28.2651 23.6123 27.345 23.0808L26.8558 22.7987C25.8951 22.2439 24.6942 22.9372 24.6942 24.0469C24.6942 25.1564 25.8951 25.8498 26.8558 25.2947L27.345 25.0125Z" fill="#979797"/>
<path d="M22.9253 32.1761C23.7518 31.6988 23.7518 30.918 22.9253 30.4407L22.4862 30.1871C21.623 29.6888 20.544 30.3116 20.544 31.3086C20.544 32.3051 21.623 32.9281 22.4862 32.4297L22.9253 32.1761Z" fill="#979797"/>
<path d="M18.978 39.4597C19.8046 38.9824 19.8046 38.2016 18.978 37.7246L18.5388 37.471C17.6757 36.9728 16.5969 37.5957 16.5969 38.5921C16.5969 39.5886 17.6757 40.2116 18.5388 39.7133L18.978 39.4597Z" fill="#979797"/>
<path d="M23.4996 1.27097L22.4309 0.682522C21.327 0.0739627 19.9752 0.872694 19.9752 2.1331C19.9752 3.3935 21.327 4.19223 22.4309 3.58411L23.4996 2.99566C24.1786 2.62099 24.1786 1.6452 23.4996 1.27097Z" fill="#979797"/>
</svg>
